<svg width="1024" height="768" xmlns="http://www.w3.org/2000/svg">
 <!-- Created with Method Draw - http://github.com/duopixel/Method-Draw/ -->
 <defs>
  <filter height="200%" width="200%" y="-50%" x="-50%" id="svg_2_blur">
   <feGaussianBlur stdDeviation="0" in="SourceGraphic"/>
  </filter>
 </defs>
 <g>
  <title>background</title>
  <rect fill="#fff" id="canvas_background" height="770" width="1026" y="-1" x="-1"/>
  <g display="none" overflow="visible" y="0" x="0" height="100%" width="100%" id="canvasGrid">
   <rect fill="url(#gridpattern)" stroke-width="0" y="0" x="0" height="100%" width="100%"/>
  </g>
 </g>
 <g>
  <title>Layer 1</title>
  <text stroke="#000" transform="matrix(51.376609802246094,0,0,12.934731483459473,-13601.684646606445,-2600.2796219587326) " xml:space="preserve" text-anchor="start" font-family="Helvetica, Arial, sans-serif" font-size="24" id="svg_1" y="239.6" x="270" stroke-width="0" fill="#000000"/>
  <text filter="url(#svg_2_blur)" font-weight="bold" stroke="#000" transform="rotate(-0.3845755159854889 579.0258789062244,383.76937866210403) matrix(12.43348459763611,0,0,9.776302241634369,-1827.1897192826568,-1754.1857208972308) " xml:space="preserve" text-anchor="start" font-family="Helvetica, Arial, sans-serif" font-size="24" id="svg_2" y="227.023502" x="167.524105" fill-opacity="null" stroke-opacity="null" stroke-width="0" fill="#000000">SGA</text>
  <path stroke="#000" id="svg_3" d="m21.689552,315.183036c-1.024354,0 -1.550871,-1.085288 -1.550871,-2.386743c0,-1.085036 0.263219,-2.138482 1.024354,-2.138482c0.526517,0 1.319121,1.053447 1.58234,2.138482c0.526517,1.579792 0,2.386743 -1.055823,2.386743zm175.102581,61.925173c2.343555,0 2.869992,0.278337 1.550871,2.13823c-0.761135,1.301455 -2.343475,2.386491 -3.10461,2.386491c-0.792524,0 -1.58234,-1.085036 -1.58234,-2.386491c0,-1.33338 1.055902,-2.13823 3.136079,-2.13823zm-163.616956,-75.748436c-2.343475,-0.526597 -2.606773,-3.193189 0,-3.998292c1.319041,-0.247924 2.080256,0.526513 2.080256,2.138482c0,1.333212 -0.761215,2.107986 -2.080256,1.859809zm-29.211939,84.239776c3.136079,-0.774858 3.136079,-1.331784 2.080256,-3.161348c-0.789815,-1.331784 -1.053034,-2.943585 -0.526517,-3.470266c0.263219,-0.806531 1.58234,0 2.343475,1.57996c1.055823,2.138482 1.845558,2.4185 3.925815,1.085036c1.290521,-0.805018 2.343475,-1.333044 2.343475,-0.526513c0,0.526513 0.792604,0 1.816958,-1.085036c1.582419,-1.57996 1.845638,-5.051654 0.263298,-6.911632c-1.287653,-1.57996 -7.823029,-1.053279 -9.639987,0.805018c-1.053034,1.333464 -1.845638,1.054959 -2.869992,-1.331532c-1.58234,-3.968131 -1.58234,-4.525225 2.080177,-4.773149c3.136079,0 3.136079,0 0.526517,-1.611801c-1.316253,-0.774858 -2.606694,-2.386491 -2.606694,-3.439937c0,-2.666424 3.633916,-4.246384 5.216255,-2.386407c0.526517,0.77469 1.550951,1.57996 2.606773,1.57996c2.080256,0 12.012062,-9.018357 12.012062,-10.878334c0,-0.806447 1.027222,-1.33296 2.080256,-0.806447c1.290441,0.279933 3.633996,-0.526513 6.008939,-1.859977c3.367829,-2.138314 3.367829,-2.386491 1.550871,-5.856757c-1.287653,-2.386491 -2.869992,-3.193189 -6.532588,-3.193189c-4.160433,0 -5.216255,0.526765 -6.503908,3.719955c-0.529385,2.13823 -2.111645,3.718274 -3.136079,3.718274c-1.816958,0 -2.343475,-2.385062 -0.526517,-3.718274c0.789736,-0.526765 1.316253,-2.386491 1.316253,-4.246468c0,-2.91334 -0.526517,-3.439937 -3.925815,-2.664996c-3.399298,0.526513 -3.399298,0.278337 -2.606773,-3.720123c0.526517,-2.386407 1.287653,-4.524721 1.817038,-4.772897c0.526517,-0.278337 1.052955,-2.664996 1.052955,-5.051486c0,-4.773401 1.553739,-5.57842 4.426599,-2.138482c1.316173,1.859893 2.108857,2.138482 2.606694,0.526513c0.526517,-1.053279 2.372075,-1.301455 5.244936,-0.774942c3.897214,1.053447 4.160433,0.774942 3.633916,-2.386491c-0.263219,-1.859725 -0.529305,-3.998208 -0.792524,-4.524721c0,-0.80527 -1.287653,-1.859977 -2.841392,-2.665248c-3.136079,-1.33296 -3.925815,-4.524721 -1.055823,-4.524721c0.792604,0 1.55366,-0.526765 1.55366,-1.58164c0,-0.80527 1.582419,-1.331784 3.662596,-1.085204c2.87286,0.279933 4.423731,-0.774521 8.349546,-6.352689c2.87286,-3.99846 4.953037,-6.136774 5.216335,-5.051738c0.263219,1.331784 1.58234,2.106473 2.87278,2.106473c2.080256,0 2.343555,-0.77469 1.582419,-4.244956c-0.266087,-2.386659 -1.582419,-5.299663 -2.374943,-6.633127c-2.343555,-2.944761 -2.343555,-6.384698 0,-5.331672c1.845558,1.054959 7.588331,-1.858297 7.588331,-3.71819c0,-0.806531 0.764003,-1.333212 1.816958,-1.333212c1.055902,0 1.553739,1.611717 1.553739,3.719871c0,2.664996 0.526517,3.718442 1.845638,2.943501c1.024354,-0.55701 1.817038,-2.138482 1.817038,-3.191677c0,-3.193357 8.349466,-8.771609 10.429643,-7.190221c0.792683,0.526933 1.58234,0 1.848586,-1.859725c0.761056,-3.719871 5.476606,-6.633127 7.556783,-4.773149c1.055902,0.77469 2.080336,0.526765 2.346423,-0.278337c0.526437,-1.054875 2.606694,-1.859977 4.950169,-2.108322c2.343475,-0.278337 5.479554,-1.333212 6.798675,-2.418248c4.950169,-3.439937 9.903285,-3.191761 11.983462,0.528362c1.319121,2.664828 1.845558,2.664828 1.845558,0.80485c0,-2.386659 1.027302,-2.664996 7.296591,-1.859725c9.931886,1.054875 11.485625,1.054875 15.148221,-0.278589c2.343475,-0.774858 3.135999,-0.526681 3.135999,1.611549c0,1.333464 0.761215,2.386743 1.817038,2.386743c0.789736,0 1.550871,-0.774942 1.550871,-1.581472c0,-2.13823 4.191981,-3.191677 7.854497,-2.13823c2.841392,1.054875 3.10461,1.33296 2.343475,8.492768c-0.263219,4.276797 0,7.190053 0.497917,7.190053c0.526437,0 1.055823,-1.859977 1.055823,-4.524973c0,-4.494644 2.869992,-6.353109 3.925815,-2.66508c0.263298,1.331868 1.024354,0.805102 1.550871,-1.301371c1.319201,-5.579848 4.191981,-2.666676 3.399298,3.439937c-0.789656,5.051486 -0.789656,5.051486 1.553819,3.191509c1.319041,-0.805102 2.343395,-2.913004 2.343395,-4.244956c0,-1.333296 0.792683,-2.914684 1.845718,-3.471778c2.080097,-1.053027 4.42652,2.943753 3.662516,5.858185c-0.263219,1.332036 -0.263219,2.386659 0.497837,2.386659c0.529385,0 1.055902,-0.77469 1.055902,-1.333212c0,-0.774858 1.290441,-1.053447 2.87278,-0.526513c3.396509,0.805102 3.894346,2.943333 1.024434,4.244788c-0.761135,0.558522 -1.553739,1.859977 -1.553739,2.945181c0,1.859977 0.529305,1.859977 3.399298,0c4.68695,-3.191677 6.767127,-2.945181 7.55981,0.526513c0.526437,1.859977 1.55366,2.666508 2.606694,1.859977c1.055823,-0.278505 3.399298,0.806531 5.216335,2.664996c1.58234,1.581388 3.925815,2.913256 4.981637,2.913256c1.553739,0 1.553739,1.33338 1.024354,5.053083c-0.526437,3.99846 -0.526437,4.524973 1.055902,2.913424c2.080177,-2.634919 2.869992,-2.386911 3.633996,1.331532c0.263219,1.859977 2.108777,3.193189 4.189033,3.998292c2.343475,0.528362 3.633996,1.859893 3.633996,3.441366c0,1.611717 0.789656,3.470266 1.58234,4.525141c2.080256,1.859725 1.550871,7.437977 -0.792683,9.29787c-0.789656,0.557094 -1.816878,0.278589 -2.080177,-0.526513c-0.526437,-0.806699 -2.343475,-0.806699 -5.742852,0c-5.479554,1.858297 -6.503908,2.386491 -5.216255,4.80331c0.792604,1.57996 9.906074,1.053447 14.884922,-0.806531c1.553739,-0.805186 2.080256,0 2.080256,3.719955c0,2.664828 -0.526517,4.773149 -1.316253,4.773149c-0.529385,0 -1.027222,0.805018 -1.027222,2.13823c0,3.193021 1.290521,2.913004 4.689818,-0.80527c1.81409,-2.13823 2.869912,-2.666424 4.160433,-1.33296c1.316253,1.33296 1.58234,1.33296 1.58234,-0.80527c0,-1.303051 -0.529385,-2.386491 -1.319041,-2.386491c-0.497917,0 -1.027302,-1.054875 -1.027302,-2.108322c0,-1.333044 0.764003,-2.386491 1.816958,-2.386491c0.792604,0 1.845638,0.526513 1.845638,1.301455c0,0.806867 1.027222,1.859893 2.346343,2.138482c1.81417,0.806699 2.343475,1.859977 2.080177,5.051654c-0.529305,6.106193 0.526597,7.966339 4.423731,6.91306c1.845638,-0.528362 2.869912,0 2.080256,1.053279c-0.234618,0.526513 0,1.859977 0.526517,2.416652c2.111645,1.581556 1.319041,5.300083 -1.024434,5.300083c-2.87278,0 -3.662596,1.33296 -2.108777,3.719703c1.052955,1.333212 1.845558,1.57996 2.869912,0.526681c2.374943,-2.664996 2.87286,-0.526681 3.136079,10.104821c0,5.329824 0.526517,9.57646 1.053034,9.57646c1.290441,0 0.792604,5.858185 -1.053034,8.244676c-1.027222,1.331784 -1.027222,2.633155 -0.263219,3.71819c1.845558,2.386743 0,9.298374 -2.346423,9.298374c-2.080097,0 -6.005991,5.051486 -6.005991,7.438145c0,2.914852 -3.367829,0 -4.160433,-3.191761c-0.789736,-2.913172 -0.789736,-2.913172 -1.319121,-0.806531c-0.497837,2.418332 2.346343,9.856477 4.718498,11.964378c1.55366,1.611969 -1.319121,4.276797 -3.399377,3.191761c-1.055902,-0.526513 -1.553739,-2.106473 -1.553739,-3.718274c0,-4.524721 -6.532588,-15.931165 -11.485625,-20.207794c-2.635294,-2.108322 -4.978849,-4.494812 -4.978849,-5.299831c0,-1.611801 -8.352334,-6.633127 -13.039284,-8.244844c-2.609641,-0.806531 -3.399377,-0.526597 -3.399377,1.611717c0,1.57996 -0.497837,2.106473 -1.553739,1.57996c-2.343475,-1.053447 -3.399298,1.333464 -1.319041,3.719955c2.87278,2.913172 2.374943,6.384698 -0.761135,5.051486c-2.108857,-0.805102 -2.372155,-0.526765 -1.58234,3.998376c0.263219,2.634667 0.792604,6.106193 0.792604,7.686153c0,1.611801 0.526437,2.665248 1.052955,2.665248c0.764083,0 1.027222,-0.526765 0.497917,-1.331784c-0.263219,-0.806699 0.266166,-1.581472 1.319041,-1.581472c0.792683,0 1.553739,1.054707 1.553739,2.107986c0,1.085204 -1.027142,2.13823 -2.87278,1.860145c-1.550871,0 -2.869992,-0.774942 -2.869992,-1.301623c0,-2.4185 -7.033293,-18.876178 -9.11347,-21.292998c-2.343555,-2.634919 -0.789815,-3.439937 -19.308733,9.049862c-2.869912,1.859977 -6.005991,5.858185 -7.588331,8.771609c-1.290521,2.913004 -3.370697,5.858185 -4.423731,6.384698c-1.055823,0.526765 -4.953037,4.773149 -8.352414,9.298122c-14.621704,19.927777 -12.24676,22.314435 -11.222326,63.010377c4.42652,30.8377 4.42652,30.8377 4.42652,30.8377c-10.432591,0 -10.432591,0 -10.432591,0c-8.612765,0 -8.612765,0 -8.612765,0c0.789736,-28.452806 0.789736,-28.452806 0.789736,-28.452806c0.526437,-2.384894 0.792604,-7.189801 1.055902,-9.855049c0.263219,-1.581388 -7.325192,-8.49302 -7.061893,-10.072812c0,-1.333212 7.851629,2.386743 7.851629,1.053279c1.290441,-19.401263 0,-34.83616 -3.399377,-43.050591c-0.789736,-5.051738 -7.325112,-21.291401 -8.349466,-21.291401c-0.263298,0 -2.108857,-1.581388 -3.925815,-3.441366c-3.136159,-3.470098 -4.423731,-3.718442 -21.918295,-4.773149c-18.782137,-1.083608 -18.782137,-1.083608 -18.782137,-1.083608c-4.452332,3.718442 -4.452332,3.718442 -4.452332,3.718442c-2.606694,2.418248 -5.216255,3.998292 -5.977471,3.998292c-1.58234,0 -8.117716,5.579596 -10.959108,8.771105c-0.263219,0 -0.526437,-0.278085 -0.526437,-0.526513c-0.263298,0 -0.263298,0 -0.263298,-0.278505c-0.263219,-0.77469 -0.529305,-1.581388 -1.055823,-2.386491c1.58234,-1.333212 2.87278,-2.139743 3.399298,-1.859725c0.789736,0.526513 1.553739,0 1.553739,-1.333464c0,-1.331784 -1.553739,-1.859893 -5.714172,-1.331784c-4.981717,0.80527 -6.272158,1.083608 -7.061893,4.24504c-1.290521,1.611717 -1.553739,3.998376 -0.789736,5.858353c-0.266166,2.386491 -0.266166,3.998208 0,3.998208c0.263219,0 0.526437,-0.526513 1.316253,-1.085036c0,0.278589 0.263219,0.558522 0.529305,0.806531c-2.609562,0.805102 -3.928683,3.191761 -3.662596,5.578252c-1.319041,1.085036 -2.609562,1.611717 -4.191822,2.41682c0,0 0,-0.278337 -0.234698,-0.278337c1.027222,-2.386491 1.553739,-5.051738 1.816958,-9.049946c0.529385,-4.494812 0.263219,-7.438145 -0.526437,-7.438145c-0.526517,0 -1.055823,1.085036 -1.055823,2.664744c0.263139,1.333464 -0.234698,2.665248 -1.287732,2.913424c-0.792604,0.278337 -1.319041,-0.248176 -1.319041,-1.57996c0,-3.193189 -1.024434,-3.193189 -3.370777,-0.279933c-1.052955,1.085036 -3.133211,2.386659 -4.950169,2.945181c-2.374943,0.77469 -3.136079,0.247924 -4.191901,-2.665248c-0.789736,-2.386491 -1.316253,-5.053083 -0.789736,-6.106361c0.263219,-1.333212 0.263219,-2.41682 -0.761135,-2.41682c-2.87286,0 -0.792604,-4.246636 2.606694,-5.053167zm22.444733,-61.118642c-1.58234,-0.278337 -2.87286,-1.053279 -3.399298,-2.138314c-0.263298,-1.581388 -0.526517,-1.581388 -0.526517,0c0,1.085036 -1.055823,1.859977 -2.080256,2.138314c-1.845558,0 -1.845558,0.278505 0.263298,1.333464c1.287573,0.526513 2.606694,1.331532 2.869912,1.331532c0.234618,0 1.553739,-0.805018 2.87286,-1.331532c2.343475,-1.333464 2.343475,-1.333464 0,-1.333464zm206.921214,42.802415c0.497917,0.526765 1.024434,-0.279933 1.024434,-1.611717c0,-1.054707 -0.526517,-2.108154 -1.024434,-2.108154c-0.792524,0 -1.319041,0.526681 -1.319041,1.301455c0,0.806699 0.526517,1.891734 1.319041,2.418416zm-1.845558,2.386659c-0.263219,-0.806699 -1.553739,-1.859893 -2.609562,-1.859893c-0.761135,0 -1.287653,1.053195 -0.761135,1.859893c0.234618,0.805102 1.290441,1.331868 2.343475,1.331868c1.027222,0 1.290441,-0.526765 1.027222,-1.331868zm-2.343475,11.96295c0.789736,0 1.845558,-0.278337 1.845558,-0.526513c0,-0.558522 -1.055823,-1.085036 -1.845558,-1.611801c-1.027222,-0.526681 -1.817038,-0.248176 -1.817038,0.526765c0,0.806531 0.789815,1.611549 1.817038,1.611549zm2.080256,-25.25928c1.052955,-0.526933 1.58226,-1.33338 1.316253,-2.108322c-0.789815,-1.890054 -5.213547,-1.890054 -5.213547,0c0,2.108322 1.550951,2.913424 3.897294,2.108322zm-14.329805,-19.929625c-1.319121,0.806699 -2.108857,2.386659 -1.845718,3.193189c1.319121,2.106725 2.87294,1.57996 4.189113,-1.859977c1.290521,-3.193189 0.764003,-3.719703 -2.343395,-1.333212zm-4.981717,40.942521c6.798595,7.159556 7.061893,7.438145 7.061893,5.051654c0,-1.331784 -0.526517,-2.41682 -1.319121,-2.41682c-0.761056,0 -2.080177,-1.333464 -2.869912,-2.913172c-0.761215,-1.58164 -2.343475,-3.193441 -3.633996,-3.193441c-2.372075,0 -2.372075,0.280017 0.761135,3.471778zm-5.476766,-12.521641c1.579551,0 2.343555,-0.526513 1.316333,-0.774774c-0.789736,-0.526681 -2.080256,-0.526681 -2.869992,0c-0.792683,0.24826 0,0.774774 1.55366,0.774774zm-7.559731,-36.137615c0.789736,0.80527 3.133211,1.858549 5.213387,2.386743c3.662676,0.805018 3.925894,0.805018 1.845638,-1.333212c-2.372075,-2.634919 -8.875983,-3.439937 -7.059025,-1.053531zm-15.912224,-44.103617c-0.789736,0.77469 -1.052955,2.386491 -0.789736,3.439685c0.526517,2.138482 2.080256,0.278589 2.080256,-2.913172c0,-1.611801 -0.263298,-1.859977 -1.290521,-0.526513zm7.823029,57.4002c2.080256,1.331616 2.87286,1.331616 3.928762,-0.528194c2.080177,-2.91334 0.761056,-4.244956 -3.136159,-2.386407c-3.136079,1.302883 -3.136079,1.302883 -0.792604,2.9146zm-5.213387,-13.296582c3.925815,-2.91292 3.925815,-2.91292 0.789736,-2.91292c-2.108857,0 -3.662596,1.053027 -4.452332,2.91292c-0.497917,1.858549 -1.027222,2.913424 -0.764003,2.913424c0,0 2.080256,-1.581556 4.426599,-2.913424zm-5.742852,43.081004c1.81409,2.913424 4.950248,2.913424 3.925815,-0.278505c-0.263219,-1.054707 -0.529305,-2.386491 -0.529305,-2.666508c0,-0.248176 -1.053034,-0.248176 -2.343475,0.280017c-2.108857,0.526681 -2.108857,1.331784 -1.053034,2.664996zm-8.089116,-10.90984c2.080177,2.91334 3.136079,3.191677 5.479554,1.053447c1.553739,-1.331784 1.553739,-1.331784 0,-1.57996c-0.789736,0 -2.869992,-0.280017 -4.68695,-0.806699c-2.609562,-1.053279 -2.609562,-1.053279 -0.792604,1.333212zm-0.263219,-28.979403c1.319041,0 2.87278,-4.246384 2.080256,-5.578168c-1.024434,-1.333212 -3.133291,0.805018 -3.133291,3.191677c0,1.333296 0.526517,2.386491 1.053034,2.386491zm-12.773277,18.06948c-1.58234,1.085036 -1.319041,1.333464 0.761215,1.333464c1.319041,0 2.869912,-0.528362 3.399298,-1.333464c0.789656,-2.107902 -1.817038,-2.107902 -4.160513,0zm0.263298,23.399723c0.234618,0.280017 1.024354,-0.278505 1.816958,-1.57996c0.789656,-1.085036 3.133291,-2.418248 4.950169,-2.945013c2.343475,-0.80527 3.399377,-2.106641 3.399377,-3.998376c0,-4.492964 -3.662596,-3.161432 -7.55989,2.666592c-1.58226,2.943585 -2.869912,5.330244 -2.606614,5.856757zm-2.87278,-12.241623c2.343395,-2.913004 2.343395,-3.441366 0.497757,-4.246468c-2.080177,-1.053447 -3.631048,1.333464 -3.631048,5.578252c-0.266087,3.193189 -0.266087,3.193189 3.133291,-1.331784zm-4.189113,-31.36581c0.263219,2.13823 0.789736,1.859893 2.343395,-2.108154c1.845718,-4.24504 1.845718,-4.803562 0.263298,-4.803562c-1.024354,0 -2.080256,0.80527 -2.343475,2.138566c-0.526517,1.053195 -0.526517,3.471694 -0.263219,4.773149zm-1.290521,-21.788006c0,1.083608 0.497837,3.718442 1.027222,5.578252c0.789736,3.719871 0.789736,3.719871 1.58234,0.526681c1.024354,-3.191509 0,-7.964658 -1.58234,-7.964658c-0.764003,0 -1.027222,0.80485 -1.027222,1.859725zm-18.281432,8.769929c-1.290441,1.859977 -1.290441,3.719955 -0.266087,9.298122c0.529385,3.998292 1.848506,7.996668 2.609562,8.771609c1.319121,1.333212 1.58234,0 1.845558,-8.243416c0,-10.073064 -1.319041,-13.266001 -4.189033,-9.826316zm2.343475,28.174301c0.263298,0.526765 0.789736,-0.526681 0.526517,-2.10807c0,-1.611801 -0.263219,-1.859977 -0.789736,-0.805102c-0.234698,1.053279 -0.234698,2.386491 0.263219,2.913172zm9.405369,-24.981111c-0.263219,0.526765 -0.263219,4.246636 0.526517,8.243416c0.792604,6.91306 1.027222,7.191397 1.290521,2.139743c0.263219,-8.244844 -0.263298,-12.243052 -1.817038,-10.383158zm-8.878851,74.973579c1.58234,-3.193189 4.189113,-8.523433 6.006071,-11.71637c2.080177,-3.440189 3.399298,-7.96491 3.925815,-12.489884c0.764003,-7.159808 0.764003,-7.159808 0.764003,-7.159808c-3.136079,3.968047 -3.136079,3.968047 -3.136079,3.968047c-1.553739,2.138482 -2.606773,4.524973 -2.606773,5.330244c0,2.107986 -4.953037,15.404316 -6.506776,17.790974c-0.789736,1.331532 -2.108857,4.276797 -2.343475,6.384698c-1.319121,6.105101 1.027222,5.051654 3.897214,-2.107902zm-18.518918,27.367602c0.792604,5.299663 0.792604,5.299663 3.399377,-6.106445c1.553739,-6.136858 3.897214,-15.961326 5.479554,-22.067855c2.080177,-7.716734 2.87278,-14.101433 2.87278,-23.120966c0,-11.715194 -0.266087,-11.96337 -2.346263,-10.629906c-4.71563,3.439853 -7.325192,13.016313 -8.378226,31.612306c-0.497837,9.578308 -1.027222,19.154767 -1.55366,21.262921c-0.263298,2.138314 0,6.13669 0.526437,9.049946zm0.529385,-68.031786c1.024354,2.634835 2.080256,4.773149 2.080256,4.773149c0.263219,0 1.550792,-1.611801 2.606694,-3.719703c1.319041,-1.858465 3.399298,-3.99678 4.189113,-4.771721c3.107399,-2.418248 3.897135,-9.856393 1.290441,-14.908047c-2.080256,-4.524973 -7.823029,-9.57814 -8.878931,-7.966339c-0.526437,0.526681 -1.287573,5.579848 -1.816958,11.436605c-1.052955,8.771357 -1.052955,11.437781 0.529385,15.156055zm-1.58234,-60.871726c0.526517,0.528194 1.052955,0.248176 1.052955,-0.556842c0,-1.054875 -0.526437,-2.108322 -1.052955,-2.634919c-0.792604,-0.558438 -1.290521,-0.278505 -1.290521,0.774942c0,0.805102 0.497917,1.859977 1.290521,2.41682zm-84.533995,71.471303c3.633916,0.279933 3.633916,0.279933 3.633916,0.279933c3.662596,0 7.325192,-3.441366 7.325192,-6.384698c0,-1.859977 -0.263219,-1.859977 -10.959108,6.104765zm1.553739,-7.438229c0,0.806951 0.526517,1.611801 1.319121,1.611801c1.287653,0 4.950169,-4.773149 4.160433,-5.578168c-0.792604,-1.085036 -5.479554,2.386407 -5.479554,3.966367zm2.87278,-18.317404c3.925894,5.301091 5.742852,5.827772 7.823029,2.386407c2.108857,-3.191509 0.263298,-5.329992 -6.008859,-6.104933c-5.213467,-0.806699 -5.213467,-0.806699 -1.81417,3.718526zm-2.87278,-14.906703c0,0.556842 1.845558,1.858297 3.925815,2.943333c9.640067,5.051738 11.485625,5.051738 11.222326,0.248428c0,-2.913424 -3.925815,-9.29829 -5.479554,-9.29829c-1.845558,0 -9.668587,5.051654 -9.668587,6.106529zm14.095187,37.749332c2.869992,0 3.133211,-0.80527 0.789736,-2.106725c-1.055823,-0.279933 -2.080256,0 -2.343475,0.774942c-0.529385,0.80485 0.263219,1.331784 1.553739,1.331784zm2.080256,-62.451938c-1.817038,-1.33338 -4.163381,-1.859893 -5.216335,-1.33338c-1.816958,1.054875 -1.553739,1.33338 1.052955,2.13823c1.290521,0.528362 3.928762,1.054959 5.216335,1.303135c1.553739,0 1.553739,-0.528194 -1.052955,-2.107986zm-0.234618,9.57646c1.550792,0 1.816958,-0.278505 0.761135,-1.083608c-0.761135,-0.248008 -1.817038,-0.248008 -2.343555,0.278589c-0.263219,0.526513 0.526517,1.053447 1.582419,0.805018zm1.550792,6.106613c-3.662516,0 -3.662516,0.247924 -1.550792,2.386407c2.606694,2.386491 3.367829,2.664828 4.423731,1.053279c1.816878,-2.106725 0.526437,-3.439685 -2.87294,-3.439685zm5.216415,-30.03285c-1.055902,-1.333212 -1.319121,1.053447 -0.789815,3.966619c0.263219,1.859977 1.316253,3.471526 1.845638,3.471526c1.024354,0 0.263219,-5.858185 -1.055823,-7.438145zm8.349466,35.084084c-0.526437,0.248428 0.792604,1.859977 2.346343,3.193357c1.58234,1.331784 2.869912,1.858381 2.869912,1.053279c0,-1.859725 -4.423652,-5.33142 -5.216255,-4.246636zm-6.532588,1.859977c-2.343475,1.860145 -1.024354,6.633043 2.372155,7.438313c1.816958,0.526597 4.689818,2.66508 6.506776,4.772981c1.58234,2.138482 2.869912,2.945181 2.869912,2.138482c0,-2.664996 -10.429723,-15.434813 -11.748844,-14.349777zm10.695889,22.068107c-1.55366,-4.278393 -3.370697,-6.385118 -6.770074,-7.71833c-2.606694,-1.053279 -5.216255,-1.611549 -6.005991,-1.331616c-0.792604,0.278337 2.343475,3.718274 6.798675,7.716566c8.349466,6.911632 8.349466,6.911632 5.977391,1.33338zm13.8577,-40.942689c-0.526517,0 -1.055902,1.053447 -1.055902,2.106725c0,1.333212 0.529385,2.138482 1.055902,2.138482c0.761135,0 1.290521,-0.80527 1.290521,-2.138482c0,-1.053279 -0.529385,-2.106725 -1.290521,-2.106725zm-2.372075,21.788006c0,1.859725 4.452332,0.526681 6.26929,-1.859977c2.606773,-3.998208 2.343475,-5.051654 -1.055823,-5.051654c-2.343475,0 -5.213467,3.720039 -5.213467,6.911632zm7.588411,-57.400452c-0.792604,3.439937 -1.319121,6.353109 -1.055823,6.633127c0.792524,1.053447 2.87286,-6.911464 2.87286,-10.104653c0,-1.331784 -0.792683,0.280017 -1.817038,3.471526zm13.565881,53.680497c-1.319121,0 -2.343555,0.528362 -2.343555,1.581388c0,0.80527 0.761135,1.333464 1.550871,1.333464c1.055823,0 2.080256,-0.528194 2.346343,-1.333464c0.526517,-1.053027 -0.266087,-1.581388 -1.55366,-1.581388zm-3.136159,49.962055c1.553739,4.80499 3.897214,9.298122 5.216335,10.383158c1.319121,0.80527 3.925815,4.525141 5.479554,8.244844c1.553739,3.718442 3.136079,6.631698 3.399377,6.631698c1.287573,0 -1.319121,-24.453002 -3.136079,-31.892575c-1.582419,-6.38327 -2.080336,-12.241623 -1.817038,-21.539746c0.234618,-6.911464 0,-13.017993 -0.526437,-13.54459c-0.263298,-0.526681 -2.080256,-0.526681 -3.662596,0c-2.87286,1.053279 -3.136079,1.859977 -3.136079,7.718162c0,4.493216 -0.526597,6.911632 -1.817038,7.964658c-3.662516,2.386743 -3.399298,15.931249 0,26.03439zm-7.559731,-35.610765c-0.526517,-3.998292 -1.052955,-4.524973 -3.925815,-4.524973c-3.399377,0 -3.399377,0.278505 -3.136079,5.856757c0,3.441366 0.529305,7.439573 0.792524,9.298038c0.263298,1.859977 1.290521,3.719703 2.343555,3.998292c2.080177,1.33338 4.423652,-7.964658 3.925815,-14.628114zm-3.925815,26.839408c-2.343555,-3.191761 -3.925815,-6.631698 -4.160513,-7.438145c0,-1.053279 -1.319041,-3.718274 -2.869992,-6.104933c-1.58234,-2.386491 -3.399298,-5.331504 -4.191901,-6.38495c-2.606694,-3.719703 -2.080256,-0.526513 0.792604,7.716734c1.816958,5.579596 4.950248,10.631334 8.612765,14.877718c6.769995,7.189969 7.55981,5.857009 1.817038,-2.666424zm-4.160513,13.048154c2.841392,0 2.606773,-0.278337 -1.319041,-4.524721c-2.606773,-2.665248 -4.423731,-5.57842 -4.423731,-6.911716c0,-1.053195 -3.399377,-4.803478 -7.325112,-8.243416c-3.897294,-3.471442 -7.55989,-6.91138 -8.086327,-7.966087c-0.529385,-1.331784 -0.792604,-1.331784 -0.792604,0.248176c0,1.611801 -1.287653,1.859725 -5.479554,1.053279c-2.869992,-0.526765 -5.213467,-0.526765 -5.213467,-0.246748c0,0.526681 1.052955,3.718442 2.108857,6.91138c1.817038,5.299915 2.606694,6.385118 8.349546,8.491676c3.633996,1.333212 9.376688,4.524889 13.039284,6.91138c3.399377,2.4185 7.55981,4.276797 9.14215,4.276797zm-40.728953,9.019533c1.055823,0 2.609562,-0.526513 3.662516,-1.33296c1.817038,-1.858549 0.266166,-1.858549 -3.133211,0c-1.553739,0.806447 -1.816958,1.054623 -0.529305,1.33296zm-2.869992,-6.633043c2.606773,-1.08344 10.959108,-2.138314 18.547518,-2.138314c14.327017,-0.248176 17.199797,-1.053027 11.456945,-2.664996c-1.816878,-0.526513 -5.977391,-1.859977 -9.376688,-3.191761c-6.006071,-2.386491 -18.2843,-1.581388 -19.571952,1.08386c-0.266087,0.527942 -1.58234,0.806447 -2.87278,0.527942c-2.606773,-0.806531 -5.216335,1.331952 -6.006071,5.57842c-1.055823,3.439685 0.789736,3.719703 7.823029,0.80485zm-20.862393,6.106529c0.526517,2.138482 3.136079,2.386491 5.216335,0.526513c1.287573,-1.053195 1.287573,-1.579708 0,-3.191509c-1.055823,-1.58164 -1.816958,-1.58164 -3.399298,-0.248176c-1.055823,0.774942 -1.817038,2.106725 -1.817038,2.913172zm-8.349546,18.596245c1.024434,0 1.550951,0.80527 1.024434,2.386659c-0.234698,1.085036 -1.024434,2.138314 -1.553739,2.138314c-0.789736,0 -1.287653,-1.053279 -1.287653,-2.138314c0,-1.301455 0.761135,-2.386659 1.816958,-2.386659z" fill-opacity="null" stroke-opacity="null" stroke-width="0" fill="#000000"/>
 </g>
</svg>