<svg width="173.2" height="200" xmlns="http://www.w3.org/2000/svg">

 <g>
  <title>background</title>
  <rect fill="none" id="canvas_background" height="402" width="582" y="-1" x="-1"/>
 </g>
 <g>
  <title>Layer 1</title>
  <polygon id="svg_3" points="23,122 109.5999984741211,172 109.5999984741211,72 " stroke-miterlimit="10" stroke="#FFFFFF" opacity="0.04"/>
  <polygon id="svg_4" points="0,150 86.6,200 86.6,100 " stroke-miterlimit="10" stroke="#FFFFFF" opacity="0.04"/>
  <polygon id="svg_5" points="86.6,100 173.2,150 173.2,50   " stroke-miterlimit="10" stroke="#FFFFFF" opacity="0.08"/>
  <polygon id="svg_6" points="86.6,100 0,50 0,150 " fill-opacity="0"/>
  <polygon id="svg_7" points="173.2,150 86.6,100 86.6,200   " stroke-miterlimit="10" stroke="#FFFFFF" opacity="0.08"/>
  <polygon id="svg_8" points="173.2,50 86.6,0 86.6,100 " stroke-miterlimit="10" stroke="#FFFFFF" opacity="0.08"/>
  <path id="svg_9" d="m32.996128,67.676799c-0.522892,0 -0.791658,-0.562416 -0.791658,-1.236854c0,-0.562286 0.134363,-1.108201 0.522892,-1.108201c0.268766,0 0.673359,0.545916 0.807721,1.108201c0.268766,0.818678 0,1.236854 -0.538955,1.236854zm89.382898,32.090777c1.196291,0 1.465017,0.144239 0.791658,1.108071c-0.388529,0.674438 -1.196251,1.236724 -1.58478,1.236724c-0.404552,0 -0.807721,-0.562286 -0.807721,-1.236724c0,-0.690982 0.538996,-1.108071 1.600843,-1.108071zm-83.519943,-39.254249c-1.196251,-0.272893 -1.330654,-1.65477 0,-2.071989c0.673318,-0.128479 1.061888,0.272849 1.061888,1.108201c0,0.690895 -0.38857,1.092397 -1.061888,0.963788zm-14.911532,43.654619c1.600843,-0.401546 1.600843,-0.690155 1.061888,-1.638269c-0.403169,-0.690155 -0.537532,-1.52542 -0.268766,-1.798357c0.134363,-0.417959 0.807721,0 1.196251,0.818765c0.538955,1.108201 0.942084,1.253312 2.003972,0.562286c0.658759,-0.417176 1.196251,-0.690808 1.196251,-0.272849c0,0.272849 0.404593,0 0.927485,-0.562286c0.807762,-0.818765 0.942125,-2.617861 0.134403,-3.581736c-0.657295,-0.818765 -3.993345,-0.545829 -4.92083,0.417176c-0.537532,0.691026 -0.942125,0.546699 -1.465017,-0.690025c-0.807721,-2.056359 -0.807721,-2.345056 1.061847,-2.473535c1.600843,0 1.600843,0 0.268766,-0.835265c-0.671895,-0.401546 -1.330613,-1.236724 -1.330613,-1.78264c0,-1.381791 1.854969,-2.200555 2.662691,-1.23668c0.268766,0.401459 0.791699,0.818765 1.330654,0.818765c1.061888,0 6.13168,-4.67348 6.13168,-5.637355c0,-0.417916 0.524356,-0.690765 1.061888,-0.417916c0.658719,0.145067 1.85501,-0.272849 3.067324,-0.963875c1.719143,-1.108114 1.719143,-1.236724 0.791658,-3.03508c-0.657295,-1.236724 -1.465017,-1.65477 -3.334626,-1.65477c-2.123735,0 -2.662691,0.27298 -3.319986,1.92775c-0.27023,1.108071 -1.077911,1.926879 -1.600843,1.926879c-0.927485,0 -1.196251,-1.235984 -0.268766,-1.926879c0.403129,-0.27298 0.671895,-1.236724 0.671895,-2.200599c0,-1.509747 -0.268766,-1.78264 -2.003972,-1.38105c-1.735206,0.272849 -1.735206,0.144239 -1.330654,-1.927837c0.268766,-1.23668 0.657295,-2.344795 0.927525,-2.473404c0.268766,-0.144239 0.537491,-1.38105 0.537491,-2.617774c0,-2.473665 0.793122,-2.890841 2.259603,-1.108201c0.671854,0.963831 1.076487,1.108201 1.330613,0.272849c0.268766,-0.545829 1.21085,-0.674438 2.677331,-0.401589c1.989373,0.545916 2.123735,0.401589 1.854969,-1.236724c-0.134363,-0.963744 -0.270189,-2.071946 -0.404552,-2.344795c0,-0.417306 -0.657295,-0.963875 -1.450417,-1.381181c-1.600843,-0.690765 -2.003972,-2.344795 -0.538955,-2.344795c0.404593,0 0.793081,-0.27298 0.793081,-0.819635c0,-0.417306 0.807762,-0.690155 1.869609,-0.562373c1.466481,0.145067 2.258139,-0.401371 4.262111,-3.292082c1.466481,-2.072076 2.528328,-3.180191 2.662731,-2.617905c0.134363,0.690155 0.807721,1.091614 1.46644,1.091614c1.061888,0 1.196291,-0.401459 0.807762,-2.199815c-0.135827,-1.236811 -0.807762,-2.746384 -1.212314,-3.43741c-1.196291,-1.52603 -1.196291,-3.308669 0,-2.762972c0.942084,0.546699 3.873541,-0.963004 3.873541,-1.926835c0,-0.417959 0.389993,-0.690895 0.927485,-0.690895c0.538996,0 0.793122,0.835222 0.793122,1.927706c0,1.38105 0.268766,1.926966 0.942125,1.525377c0.522892,-0.288653 0.927525,-1.108201 0.927525,-1.653986c0,-1.654857 4.26207,-4.545611 5.323918,-3.726106c0.404633,0.273067 0.807721,0 0.943629,-0.963744c0.388489,-1.927706 2.795589,-3.43741 3.857437,-2.473535c0.538996,0.401459 1.061929,0.27298 1.197755,-0.144239c0.268725,-0.546656 1.330613,-0.963875 2.526864,-1.092571c1.196251,-0.144239 2.797094,-0.690895 3.470453,-1.253181c2.526864,-1.78264 5.055233,-1.65403 6.11708,0.273807c0.673359,1.380963 0.942084,1.380963 0.942084,0.417088c0,-1.236811 0.524397,-1.38105 3.72462,-0.963744c5.069832,0.546656 5.862954,0.546656 7.732564,-0.14437c1.196251,-0.401546 1.600803,-0.272936 1.600803,0.835135c0,0.691026 0.38857,1.236854 0.927525,1.236854c0.403129,0 0.791658,-0.401589 0.791658,-0.819548c0,-1.108071 2.139839,-1.653986 4.009408,-1.108071c1.450417,0.546656 1.58478,0.690765 1.196251,4.40111c-0.134363,2.216316 0,3.726019 0.254167,3.726019c0.268725,0 0.538955,-0.963875 0.538955,-2.344925c0,-2.329208 1.465017,-3.292299 2.003972,-1.381094c0.134403,0.690199 0.522892,0.417219 0.791658,-0.674395c0.673399,-2.891581 2.139839,-1.381921 1.735206,1.78264c-0.403088,2.617774 -0.403088,2.617774 0.793163,1.653899c0.673318,-0.417219 1.19621,-1.509573 1.19621,-2.199815c0,-0.690939 0.404633,-1.510444 0.942165,-1.79914c1.061807,-0.545698 2.259562,1.525508 1.869569,3.035821c-0.134363,0.690286 -0.134363,1.236811 0.254126,1.236811c0.27023,0 0.538996,-0.401459 0.538996,-0.690895c0,-0.401546 0.658719,-0.545916 1.46644,-0.272849c1.733783,0.417219 1.987909,1.52529 0.522933,2.199728c-0.388529,0.289437 -0.793122,0.963875 -0.793122,1.526248c0,0.963875 0.270189,0.963875 1.735206,0c2.392501,-1.653986 3.454349,-1.526248 3.858982,0.272849c0.268725,0.963875 0.793081,1.381834 1.330613,0.963875c0.538955,-0.144327 1.735206,0.417959 2.662731,1.38105c0.807721,0.819505 2.003972,1.509703 2.542927,1.509703c0.793122,0 0.793122,0.690982 0.522892,2.618601c-0.268725,2.072076 -0.268725,2.344925 0.538996,1.509791c1.061847,-1.365464 1.465017,-1.236942 1.85501,0.690025c0.134363,0.963875 1.076447,1.65477 2.138335,2.071989c1.196251,0.273807 1.85501,0.963831 1.85501,1.78338c0,0.835222 0.403088,1.798357 0.807721,2.345012c1.061888,0.963744 0.791658,3.854498 -0.404633,4.818329c-0.403088,0.288697 -0.927444,0.14437 -1.061847,-0.272849c-0.268725,-0.418046 -1.196251,-0.418046 -2.931497,0c-2.797094,0.963004 -3.319986,1.236724 -2.662691,2.489165c0.404593,0.818765 5.056656,0.545916 7.59816,-0.417959c0.793122,-0.417263 1.061888,0 1.061888,1.92775c0,1.380963 -0.268766,2.473535 -0.671895,2.473535c-0.27023,0 -0.524356,0.417176 -0.524356,1.108071c0,1.654683 0.658759,1.509573 2.393965,-0.417306c0.926021,-1.108071 1.464976,-1.381791 2.123735,-0.690765c0.671895,0.690765 0.807721,0.690765 0.807721,-0.417306c0,-0.675265 -0.27023,-1.236724 -0.673318,-1.236724c-0.254167,0 -0.524397,-0.546656 -0.524397,-1.092571c0,-0.690808 0.389993,-1.236724 0.927485,-1.236724c0.404593,0 0.942125,0.272849 0.942125,0.674438c0,0.418133 0.524356,0.963831 1.197715,1.108201c0.926061,0.418046 1.196251,0.963875 1.061847,2.617861c-0.270189,3.164343 0.268807,4.128305 2.258139,3.582476c0.942125,-0.273807 1.464976,0 1.061888,0.545829c-0.119763,0.272849 0,0.963875 0.268766,1.252354c1.077911,0.819592 0.673318,2.746601 -0.522933,2.746601c-1.46644,0 -1.869609,0.690765 -1.076447,1.927619c0.537491,0.690895 0.942084,0.818765 1.464976,0.272936c1.212314,-1.38105 1.466481,-0.272936 1.600843,5.236506c0,2.762014 0.268766,4.962699 0.537532,4.962699c0.658719,0 0.404593,3.035821 -0.537532,4.272544c-0.524356,0.690155 -0.524356,1.36455 -0.134363,1.926835c0.942084,1.236854 0,4.818591 -1.197755,4.818591c-1.061807,0 -3.065819,2.617774 -3.065819,3.854585c0,1.510531 -1.719143,0 -2.123735,-1.65403c-0.403129,-1.50966 -0.403129,-1.50966 -0.673359,-0.417959c-0.254126,1.253225 1.197715,5.10781 2.408605,6.200163c0.793081,0.835352 -0.673359,2.216316 -1.735247,1.65403c-0.538996,-0.272849 -0.793122,-1.091614 -0.793122,-1.926879c0,-2.344795 -3.334626,-8.255826 -5.862954,-10.472055c-1.345213,-1.092571 -2.541504,-2.329295 -2.541504,-2.746471c0,-0.835265 -4.263534,-3.43741 -6.656036,-4.272631c-1.332118,-0.417959 -1.735247,-0.272893 -1.735247,0.835222c0,0.818765 -0.254126,1.091614 -0.793122,0.818765c-1.196251,-0.545916 -1.735206,0.691026 -0.673318,1.92775c1.46644,1.50966 1.212314,3.308669 -0.388529,2.617774c-1.076487,-0.417219 -1.210891,-0.27298 -0.807721,2.072033c0.134363,1.365333 0.404593,3.164343 0.404593,3.983108c0,0.835265 0.268725,1.381181 0.537491,1.381181c0.390034,0 0.524356,-0.27298 0.254167,-0.690155c-0.134363,-0.418046 0.135867,-0.819548 0.673318,-0.819548c0.404633,0 0.793122,0.546569 0.793122,1.092397c0,0.562373 -0.524315,1.108071 -1.46644,0.963962c-0.791658,0 -1.465017,-0.401589 -1.465017,-0.674525c0,-1.253312 -3.590216,-9.781987 -4.652064,-11.034428c-1.196291,-1.365464 -0.403169,-1.78264 -9.85634,4.689807c-1.464976,0.963875 -3.065819,3.035821 -3.873541,4.545611c-0.658759,1.509573 -1.720607,3.035821 -2.258139,3.308669c-0.538955,0.27298 -2.528328,2.473535 -4.263575,4.81846c-7.463798,10.326945 -6.251484,11.563755 -5.728551,32.653149c2.259562,15.98067 2.259562,15.98067 2.259562,15.98067c-5.325422,0 -5.325422,0 -5.325422,0c-4.396474,0 -4.396474,0 -4.396474,0c0.403129,-14.744773 0.403129,-14.744773 0.403129,-14.744773c0.268725,-1.235897 0.404593,-3.725889 0.538996,-5.10707c0.134363,-0.819505 -3.739219,-4.401241 -3.604816,-5.219919c0,-0.690895 4.007944,1.236854 4.007944,0.545829c0.658719,-10.054096 0,-18.052746 -1.735247,-22.309617c-0.403129,-2.617905 -3.739178,-11.0336 -4.26207,-11.0336c-0.134403,0 -1.076487,-0.819505 -2.003972,-1.78338c-1.600884,-1.798269 -2.258139,-1.926966 -11.188417,-2.473535c-9.587533,-0.561546 -9.587533,-0.561546 -9.587533,-0.561546c-2.272738,1.926966 -2.272738,1.926966 -2.272738,1.926966c-1.330613,1.253181 -2.662691,2.071989 -3.051261,2.071989c-0.807721,0 -4.143771,2.89145 -5.594188,4.54535c-0.134363,0 -0.268725,-0.144109 -0.268725,-0.272849c-0.134403,0 -0.134403,0 -0.134403,-0.144327c-0.134363,-0.401459 -0.270189,-0.819505 -0.538955,-1.236724c0.807721,-0.690895 1.46644,-1.108854 1.735206,-0.963744c0.403129,0.272849 0.793122,0 0.793122,-0.691026c0,-0.690155 -0.793122,-0.963831 -2.916857,-0.690155c-2.542968,0.417306 -3.201687,0.561546 -3.604816,2.199859c-0.658759,0.835222 -0.793122,2.072033 -0.403129,3.035908c-0.135867,1.236724 -0.135867,2.071946 0,2.071946c0.134363,0 0.268725,-0.272849 0.671895,-0.562286c0,0.14437 0.134363,0.289437 0.270189,0.417959c-1.332077,0.417219 -2.005436,1.65403 -1.869609,2.890754c-0.673318,0.562286 -1.332077,0.835222 -2.139758,1.252441c0,0 0,-0.144239 -0.119804,-0.144239c0.524356,-1.236724 0.793122,-2.617905 0.927485,-4.68985c0.27023,-2.329295 0.134363,-3.854585 -0.268725,-3.854585c-0.268766,0 -0.538955,0.562286 -0.538955,1.38092c0.134322,0.691026 -0.119804,1.381181 -0.657336,1.509791c-0.404593,0.144239 -0.673318,-0.12861 -0.673318,-0.818765c0,-1.65477 -0.522933,-1.65477 -1.720647,-0.145067c-0.537491,0.562286 -1.599379,1.236811 -2.526864,1.526248c-1.212314,0.401459 -1.600843,0.128479 -2.139799,-1.381181c-0.403129,-1.236724 -0.671895,-2.618601 -0.403129,-3.16443c0.134363,-0.690895 0.134363,-1.252441 -0.388529,-1.252441c-1.466481,0 -0.404593,-2.200686 1.330613,-2.618645zm11.457143,-31.672817c-0.807721,-0.144239 -1.466481,-0.545829 -1.735206,-1.108114c-0.134403,-0.819505 -0.268766,-0.819505 -0.268766,0c0,0.562286 -0.538955,0.963875 -1.061888,1.108114c-0.942084,0 -0.942084,0.144327 0.134403,0.691026c0.657255,0.272849 1.330613,0.690025 1.464976,0.690025c0.119763,0 0.793122,-0.417176 1.466481,-0.690025c1.196251,-0.691026 1.196251,-0.691026 0,-0.691026zm105.625043,22.181008c0.254167,0.27298 0.522933,-0.145067 0.522933,-0.835222c0,-0.546569 -0.268766,-1.092484 -0.522933,-1.092484c-0.404552,0 -0.673318,0.272936 -0.673318,0.674438c0,0.418046 0.268766,0.980332 0.673318,1.253268zm-0.942084,1.236811c-0.134363,-0.418046 -0.793122,-0.963831 -1.332077,-0.963831c-0.388529,0 -0.657295,0.545785 -0.388529,0.963831c0.119763,0.417219 0.658719,0.690199 1.196251,0.690199c0.524356,0 0.658719,-0.27298 0.524356,-0.690199zm-1.196251,6.199423c0.403129,0 0.942084,-0.144239 0.942084,-0.272849c0,-0.289437 -0.538955,-0.562286 -0.942084,-0.835265c-0.524356,-0.272936 -0.927525,-0.12861 -0.927525,0.27298c0,0.417959 0.403169,0.835135 0.927525,0.835135zm1.061888,-13.089829c0.537491,-0.273067 0.807681,-0.690982 0.671895,-1.092571c-0.403169,-0.979461 -2.661308,-0.979461 -2.661308,0c0,1.092571 0.791699,1.509791 1.989413,1.092571zm-7.314795,-10.327902c-0.673359,0.418046 -1.076487,1.236811 -0.942165,1.65477c0.673359,1.091744 1.466521,0.818765 2.138375,-0.963875c0.658759,-1.65477 0.389993,-1.927619 -1.19621,-0.690895zm-2.542968,21.217176c3.470412,3.710215 3.604816,3.854585 3.604816,2.617861c0,-0.690155 -0.268766,-1.252441 -0.673359,-1.252441c-0.388489,0 -1.061847,-0.691026 -1.464976,-1.50966c-0.38857,-0.819635 -1.196251,-1.654901 -1.85501,-1.654901c-1.21085,0 -1.21085,0.14511 0.388529,1.79914zm-2.795671,-6.488947c0.806298,0 1.196291,-0.272849 0.671935,-0.401502c-0.403129,-0.272936 -1.061888,-0.272936 -1.465017,0c-0.404633,0.128653 0,0.401502 0.793081,0.401502zm-3.858942,-18.727184c0.403129,0.417306 1.599379,0.963135 2.661227,1.236854c1.86965,0.417176 2.004013,0.417176 0.942125,-0.690895c-1.21085,-1.365464 -4.530836,-1.78264 -3.603352,-0.545959zm-8.122557,-22.855315c-0.403129,0.401459 -0.537491,1.236724 -0.403129,1.782509c0.268766,1.108201 1.061888,0.14437 1.061888,-1.50966c0,-0.835265 -0.134403,-0.963875 -0.658759,-0.272849zm3.993345,29.745851c1.061888,0.690068 1.466481,0.690068 2.005477,-0.27372c1.061847,-1.509747 0.388489,-2.199815 -1.600884,-1.23668c-1.600843,0.675178 -1.600843,0.675178 -0.404593,1.5104zm-2.661227,-6.890536c2.003972,-1.509529 2.003972,-1.509529 0.403129,-1.509529c-1.076487,0 -1.869609,0.545698 -2.272738,1.509529c-0.254167,0.963135 -0.524356,1.509791 -0.389993,1.509791c0,0 1.061888,-0.819592 2.259603,-1.509791zm-2.931497,22.325378c0.926021,1.509791 2.526905,1.509791 2.003972,-0.144327c-0.134363,-0.546569 -0.270189,-1.236724 -0.270189,-1.381834c0,-0.12861 -0.537532,-0.12861 -1.196251,0.14511c-1.076487,0.272936 -1.076487,0.690155 -0.537532,1.38105zm-4.129172,-5.653682c1.061847,1.509747 1.600843,1.653986 2.797094,0.545916c0.793122,-0.690155 0.793122,-0.690155 0,-0.818765c-0.403129,0 -1.465017,-0.14511 -2.392501,-0.418046c-1.332077,-0.545829 -1.332077,-0.545829 -0.404593,0.690895zm-0.134363,-15.017666c0.673318,0 1.46644,-2.200555 1.061888,-2.89071c-0.522933,-0.690895 -1.59942,0.417176 -1.59942,1.653986c0,0.690939 0.268766,1.236724 0.537532,1.236724zm-6.52025,9.36394c-0.807721,0.562286 -0.673318,0.691026 0.38857,0.691026c0.673318,0 1.464976,-0.273807 1.735206,-0.691026c0.403088,-1.092354 -0.927525,-1.092354 -2.123776,0zm0.134403,12.126172c0.119763,0.14511 0.522892,-0.144327 0.927485,-0.818765c0.403088,-0.562286 1.59942,-1.253181 2.526864,-1.526161c1.196251,-0.417306 1.735247,-1.091701 1.735247,-2.072033c0,-2.328337 -1.869609,-1.638313 -3.859023,1.381878c-0.807681,1.52542 -1.464976,2.762231 -1.330573,3.03508zm-1.46644,-6.343837c1.19621,-1.509573 1.19621,-1.78338 0.254085,-2.200599c-1.061847,-0.545916 -1.853505,0.691026 -1.853505,2.890754c-0.135827,1.65477 -0.135827,1.65477 1.59942,-0.690155zm-2.138375,-16.254346c0.134363,1.108071 0.403129,0.963831 1.19621,-1.092484c0.942165,-2.199859 0.942165,-2.489295 0.134403,-2.489295c-0.522892,0 -1.061888,0.417306 -1.196251,1.108245c-0.268766,0.545785 -0.268766,1.799097 -0.134363,2.473535zm-0.658759,-11.29095c0,0.561546 0.254126,1.926966 0.524356,2.890754c0.403129,1.927706 0.403129,1.927706 0.807721,0.272936c0.522892,-1.653899 0,-4.127434 -0.807721,-4.127434c-0.389993,0 -0.524356,0.417088 -0.524356,0.963744zm-9.331943,4.54474c-0.658719,0.963875 -0.658719,1.92775 -0.135827,4.81846c0.27023,2.071989 0.943589,4.144022 1.332077,4.545611c0.673359,0.690895 0.807721,0 0.942084,-4.271891c0,-5.220049 -0.673318,-6.874689 -2.138335,-5.09218zm1.196251,14.600447c0.134403,0.27298 0.403129,-0.272936 0.268766,-1.092441c0,-0.835265 -0.134363,-0.963875 -0.403129,-0.417219c-0.119804,0.545829 -0.119804,1.236724 0.134363,1.50966zm4.801066,-12.945677c-0.134363,0.27298 -0.134363,2.200686 0.268766,4.271891c0.404593,3.582476 0.524356,3.726716 0.658759,1.108854c0.134363,-4.272631 -0.134403,-6.344577 -0.927525,-5.380746zm-4.5323,38.852703c0.807721,-1.65477 2.138375,-4.417002 3.06586,-6.071641c1.061847,-1.78277 1.735206,-4.127565 2.003972,-6.47249c0.389993,-3.710346 0.389993,-3.710346 0.389993,-3.710346c-1.600843,2.056316 -1.600843,2.056316 -1.600843,2.056316c-0.793122,1.108201 -1.330654,2.344925 -1.330654,2.762231c0,1.092397 -2.528328,7.982803 -3.32145,9.219614c-0.403129,0.690025 -1.076487,2.216316 -1.196251,3.308669c-0.673359,3.163777 0.524356,2.617861 1.989373,-1.092354zm-9.45317,14.1824c0.404593,2.746384 0.404593,2.746384 1.735247,-3.164474c0.793122,-3.180234 1.989373,-8.271456 2.797094,-11.435973c1.061847,-3.998955 1.46644,-7.307625 1.46644,-11.981715c0,-6.071031 -0.135827,-6.199641 -1.197674,-5.508615c-2.407141,1.782596 -3.739219,6.745295 -4.276751,16.382085c-0.254126,4.963657 -0.524356,9.926357 -0.793081,11.018841c-0.134403,1.108114 0,3.180147 0.268725,4.68985zm0.27023,-35.255337c0.522892,1.36542 1.061888,2.473535 1.061888,2.473535c0.134363,0 0.791617,-0.835265 1.330613,-1.927619c0.673318,-0.963091 1.735206,-2.071206 2.138375,-2.472795c1.586203,-1.253181 1.989332,-5.107766 0.658719,-7.725627c-1.061888,-2.344925 -3.993345,-4.96357 -4.532341,-4.128305c-0.268725,0.272936 -0.657255,2.891581 -0.927485,5.926661c-0.537491,4.54548 -0.537491,5.927271 0.27023,7.85415zm-0.807721,-31.544861c0.268766,0.27372 0.537491,0.12861 0.537491,-0.288566c0,-0.546656 -0.268725,-1.092571 -0.537491,-1.365464c-0.404593,-0.289393 -0.658759,-0.144327 -0.658759,0.401589c0,0.417219 0.254167,0.963875 0.658759,1.252441zm-43.151239,37.037759c1.854969,0.145067 1.854969,0.145067 1.854969,0.145067c1.869609,0 3.739219,-1.78338 3.739219,-3.308669c0,-0.963875 -0.134363,-0.963875 -5.594188,3.163603zm0.793122,-3.854629c0,0.418177 0.268766,0.835265 0.673359,0.835265c0.657295,0 2.526864,-2.473535 2.123735,-2.89071c-0.404593,-0.562286 -2.797094,1.23668 -2.797094,2.055445zm1.46644,-9.492419c2.004013,2.747124 2.931497,3.02006 3.993345,1.23668c1.076487,-1.653899 0.134403,-2.762101 -3.067283,-3.16369c-2.661267,-0.418046 -2.661267,-0.418046 -0.926061,1.92701zm-1.46644,-7.724931c0,0.288566 0.942084,0.963004 2.003972,1.52529c4.92087,2.617905 5.862954,2.617905 5.728551,0.12874c0,-1.509791 -2.003972,-4.818547 -2.797094,-4.818547c-0.942084,0 -4.935429,2.617861 -4.935429,3.164517zm7.195032,19.562406c1.465017,0 1.599379,-0.417306 0.403129,-1.091744c-0.538955,-0.145067 -1.061888,0 -1.196251,0.401589c-0.27023,0.417088 0.134363,0.690155 0.793122,0.690155zm1.061888,-32.363756c-0.927525,-0.690982 -2.12524,-0.963831 -2.662731,-0.690982c-0.927485,0.546656 -0.793122,0.690982 0.537491,1.108071c0.658759,0.273807 2.005477,0.546699 2.662731,0.675309c0.793122,0 0.793122,-0.27372 -0.537491,-1.092397zm-0.119763,4.962699c0.791617,0 0.927485,-0.144327 0.388529,-0.561546c-0.388529,-0.128522 -0.927525,-0.128522 -1.196291,0.14437c-0.134363,0.272849 0.268766,0.545916 0.807762,0.417176zm0.791617,3.164561c-1.869569,0 -1.869569,0.128479 -0.791617,1.23668c1.330613,1.236724 1.719143,1.380963 2.258139,0.545829c0.927444,-1.091744 0.268725,-1.782509 -1.466521,-1.782509zm2.662772,-15.563581c-0.538996,-0.690895 -0.673359,0.545916 -0.403169,2.055576c0.134363,0.963875 0.671895,1.79901 0.942125,1.79901c0.522892,0 0.134363,-3.035821 -0.538955,-3.854585zm4.26207,18.181225c-0.268725,0.12874 0.404593,0.963875 1.197715,1.654857c0.807721,0.690155 1.464976,0.963048 1.464976,0.545829c0,-0.963744 -2.258098,-2.762841 -2.662691,-2.200686zm-3.334626,0.963875c-1.196251,0.963962 -0.522892,3.437366 1.210891,3.854672c0.927485,0.272893 2.393965,1.381094 3.32145,2.473448c0.807721,1.108201 1.464976,1.526248 1.464976,1.108201c0,-1.38105 -5.323958,-7.998607 -5.997317,-7.436321zm5.459826,11.436104c-0.793081,-2.217143 -1.720607,-3.308887 -3.455853,-3.999782c-1.330613,-0.545829 -2.662691,-0.835135 -3.065819,-0.690068c-0.404593,0.144239 1.196251,1.926879 3.470453,3.998868c4.26207,3.581736 4.26207,3.581736 3.05122,0.690982zm7.073804,-21.217263c-0.268766,0 -0.538996,0.545916 -0.538996,1.091744c0,0.690895 0.27023,1.108201 0.538996,1.108201c0.388529,0 0.658759,-0.417306 0.658759,-1.108201c0,-0.545829 -0.27023,-1.091744 -0.658759,-1.091744zm-1.21085,11.29095c0,0.963744 2.272738,0.272936 3.200223,-0.963875c1.330654,-2.071946 1.196251,-2.617861 -0.538955,-2.617861c-1.196251,0 -2.661267,1.927793 -2.661267,3.581736zm3.873582,-29.745982c-0.404593,1.78264 -0.673359,3.292299 -0.538955,3.43741c0.404552,0.545916 1.466481,-3.581649 1.466481,-5.236419c0,-0.690155 -0.404633,0.14511 -0.927525,1.79901zm6.924842,27.818232c-0.673359,0 -1.196291,0.273807 -1.196291,0.819505c0,0.417306 0.388529,0.691026 0.791658,0.691026c0.538955,0 1.061888,-0.27372 1.197715,-0.691026c0.268766,-0.545698 -0.135827,-0.819505 -0.793081,-0.819505zm-1.600884,25.891266c0.793122,2.490035 1.989373,4.81846 2.662731,5.380746c0.673359,0.417306 2.003972,2.345012 2.797094,4.272631c0.793122,1.926966 1.600843,3.436669 1.735247,3.436669c0.657255,0 -0.673359,-12.672 -1.600843,-16.527326c-0.807762,-3.307929 -1.061929,-6.343837 -0.927525,-11.162297c0.119763,-3.581649 0,-6.746166 -0.268725,-7.019059c-0.134403,-0.272936 -1.061888,-0.272936 -1.869609,0c-1.466481,0.545829 -1.600843,0.963875 -1.600843,3.999695c0,2.328468 -0.268807,3.581736 -0.927525,4.127434c-1.869569,1.236854 -1.735206,8.25587 0,13.491505zm-3.858942,-18.454161c-0.268766,-2.071989 -0.537491,-2.344925 -2.003972,-2.344925c-1.735247,0 -1.735247,0.144327 -1.600843,3.03508c0,1.78338 0.270189,3.855325 0.404552,4.818416c0.134403,0.963875 0.658759,1.927619 1.196291,2.071989c1.061847,0.690982 2.258098,-4.127434 2.003972,-7.580561zm-2.003972,13.908681c-1.196291,-1.65403 -2.003972,-3.436669 -2.123776,-3.854585c0,-0.545829 -0.673318,-1.926879 -1.465017,-3.16369c-0.807721,-1.236724 -1.735206,-2.762884 -2.139799,-3.3088c-1.330613,-1.927619 -1.061888,-0.272849 0.404593,3.998955c0.927485,2.89145 2.526905,5.509355 4.396474,7.70991c3.455813,3.725976 3.858982,3.035211 0.927525,-1.381791zm-2.123776,6.761796c1.450417,0 1.330654,-0.144239 -0.673318,-2.344795c-1.330654,-1.381181 -2.258139,-2.890841 -2.258139,-3.58178c0,-0.545785 -1.735247,-2.489252 -3.739178,-4.271891c-1.989413,-1.798966 -3.859023,-3.581606 -4.127748,-4.128174c-0.27023,-0.690155 -0.404593,-0.690155 -0.404593,0.12861c0,0.835265 -0.657295,0.963744 -2.797094,0.545829c-1.465017,-0.27298 -2.661267,-0.27298 -2.661267,-0.127869c0,0.272936 0.537491,1.926966 1.076487,3.581606c0.927525,2.746514 1.330613,3.308887 4.262111,4.400544c1.85501,0.690895 4.786426,2.344882 6.656036,3.581606c1.735247,1.253312 3.858982,2.216316 4.666704,2.216316zm-20.790509,4.67409c0.538955,0 1.332077,-0.272849 1.869569,-0.690765c0.927525,-0.963135 0.135867,-0.963135 -1.599379,0c-0.793122,0.417916 -0.927485,0.546525 -0.270189,0.690765zm-1.465017,-3.437366c1.330654,-0.561459 5.594188,-1.108114 9.46777,-1.108114c7.313372,-0.12861 8.779812,-0.545698 5.848314,-1.38105c-0.927444,-0.272849 -3.05122,-0.963875 -4.786426,-1.65403c-3.06586,-1.236724 -9.333407,-0.819505 -9.990702,0.561676c-0.135827,0.273589 -0.807721,0.417916 -1.46644,0.273589c-1.330654,-0.417959 -2.662731,0.690242 -3.06586,2.890841c-0.538955,1.782509 0.403129,1.927619 3.993345,0.417088zm-10.649421,3.164517c0.268766,1.108201 1.600843,1.236724 2.662731,0.272849c0.657255,-0.545785 0.657255,-0.818634 0,-1.653899c-0.538955,-0.819635 -0.927485,-0.819635 -1.735206,-0.12861c-0.538955,0.401589 -0.927525,1.091744 -0.927525,1.50966zm-4.262111,9.63692c0.522933,0 0.791699,0.417306 0.522933,1.236811c-0.119804,0.562286 -0.522933,1.108114 -0.793122,1.108114c-0.403129,0 -0.657295,-0.545829 -0.657295,-1.108114c0,-0.674438 0.388529,-1.236811 0.927485,-1.236811z" fill-opacity="null" stroke-opacity="null" stroke-width="null" stroke="#FFFFFF" fill="null"/>
 </g>
</svg>