<svg width="707.1" height="200" xmlns="http://www.w3.org/2000/svg">

 <g>
  <title>background</title>
  <rect fill="none" id="canvas_background" height="402" width="582" y="-1" x="-1"/>
 </g>
 <g>
  <title>Layer 1</title>
  <polygon id="svg_2" points="86.6,133.3 57.7,116.7 57.7,83.3 86.6,66.7 115.5,83.3 144.3,66.7 86.6,33.3 28.9,66.7 28.9,133.3   86.6,166.7 144.3,133.3 115.5,116.7 " fill="#FFFFFF"/>
  <polygon id="svg_3" points="0,50 86.6,100 86.6,0 " stroke-miterlimit="10" stroke="#FFFFFF" opacity="0.04"/>
  <polygon id="svg_5" points="86.6,100 173.2,150 173.2,50   " stroke-miterlimit="10" stroke="#FFFFFF" opacity="0.08"/>
  <polygon id="svg_7" points="173.2,150 86.6,100 86.6,200   " stroke-miterlimit="10" stroke="#FFFFFF" opacity="0.08"/>
  <polygon id="svg_8" points="173.2,50 86.6,0 86.6,100 " stroke-miterlimit="10" stroke="#FFFFFF" opacity="0.08"/>
  <g id="svg_9">
   <text font-weight="bold" stroke="null" transform="matrix(6.324158466916596,0,0,5.522650738905505,-2400.0721594593656,-78.09960636101943) " xml:space="preserve" text-anchor="start" font-family="Helvetica, Arial, sans-serif" font-size="24" id="svg_17" y="40.487855" x="417.724346" fill-opacity="null" stroke-opacity="null" stroke-width="0" fill="#000000">S</text>
   <text stroke="null" transform="matrix(1,0,0,1.3661327362060547,0,-28.6270033121109) " xml:space="preserve" text-anchor="start" font-family="Helvetica, Arial, sans-serif" font-size="24" id="svg_19" y="72.85" x="264.049988" fill-opacity="null" stroke-opacity="null" stroke-width="0" fill="#000000"/>
   <text font-weight="bold" stroke="null" transform="matrix(5.850916918475433,0,0,5.500267357187448,-2023.0510691376662,-551.1437367982086) " xml:space="preserve" text-anchor="start" font-family="Helvetica, Arial, sans-serif" font-size="24" id="svg_20" y="126.859608" x="405.155284" fill-opacity="null" stroke-opacity="null" stroke-width="0" fill="#000000">G</text>
   <text font-weight="bold" stroke="null" transform="matrix(6.480784808024456,0,0,5.043468869203346,-3347.7557482162247,-646.7750726463009) " xml:space="preserve" text-anchor="start" font-family="Helvetica, Arial, sans-serif" font-size="24" id="svg_21" y="155.986409" x="588.198754" fill-opacity="null" stroke-opacity="null" stroke-width="0" fill="#000000">A</text>
  </g>
  <path id="svg_22" d="m21.125198,54.182348c-0.715762,0 -1.083663,-0.768929 -1.083663,-1.691012c0,-0.76875 0.183923,-1.515119 0.715762,-1.515119c0.367901,0 0.921729,0.746369 1.105651,1.515119c0.367901,1.119286 0,1.691012 -0.73775,1.691012zm122.352005,43.874109c1.637546,0 2.005392,0.197202 1.083663,1.514941c-0.531839,0.922083 -1.637491,1.690833 -2.16933,1.690833c-0.553772,0 -1.105651,-0.76875 -1.105651,-1.690833c0,-0.944702 0.737806,-1.514941 2.191319,-1.514941zm-114.326485,-53.667919c-1.637491,-0.373095 -1.821469,-2.262381 0,-2.832798c0.921673,-0.175655 1.453568,0.373036 1.453568,1.515119c0,0.944583 -0.531895,1.493512 -1.453568,1.317679zm-20.411688,59.68405c2.191319,-0.548988 2.191319,-0.943571 1.453568,-2.239822c-0.551879,-0.943571 -0.735802,-2.085536 -0.367901,-2.458691c0.183923,-0.571429 1.105651,0 1.637491,1.119405c0.73775,1.515119 1.289574,1.713512 2.743142,0.76875c0.901744,-0.570357 1.637491,-0.944464 1.637491,-0.373036c0,0.373036 0.553828,0 1.26959,-0.76875c1.105707,-1.119405 1.28963,-3.579107 0.183978,-4.896905c-0.89974,-1.119405 -5.4663,-0.74625 -6.73589,0.570357c-0.735802,0.944762 -1.28963,0.747441 -2.005392,-0.943393c-1.105651,-2.811429 -1.105651,-3.206131 1.453512,-3.381786c2.191319,0 2.191319,0 0.367901,-1.141964c-0.919725,-0.548988 -1.821414,-1.690833 -1.821414,-2.437202c0,-1.889167 2.53918,-3.008572 3.644831,-1.690774c0.367901,0.548869 1.083719,1.119405 1.821469,1.119405c1.453568,0 8.393365,-6.389524 8.393365,-7.707322c0,-0.571369 0.717766,-0.944405 1.453568,-0.571369c0.901689,0.198333 2.539235,-0.373036 4.198714,-1.317798c2.353253,-1.515 2.353253,-1.690833 1.083663,-4.149524c-0.89974,-1.690833 -2.005392,-2.262381 -4.564611,-2.262381c-2.907081,0 -3.644831,0.373214 -4.544571,2.635595c-0.369905,1.514941 -1.475501,2.634405 -2.191319,2.634405c-1.26959,0 -1.637491,-1.689822 -0.367901,-2.634405c0.551824,-0.373214 0.919725,-1.690833 0.919725,-3.008631c0,-2.064107 -0.367901,-2.437202 -2.743142,-1.888155c-2.375241,0.373036 -2.375241,0.197202 -1.821469,-2.635714c0.367901,-1.690774 0.89974,-3.205774 1.269645,-3.381607c0.367901,-0.197202 0.735746,-1.888155 0.735746,-3.578988c0,-3.381964 1.085667,-3.952322 3.093063,-1.515119c0.919669,1.317738 1.473552,1.515119 1.821414,0.373036c0.367901,-0.74625 1.657475,-0.922083 3.664871,-0.549048c2.723158,0.746369 2.907081,0.549048 2.53918,-1.690833c-0.183923,-1.317619 -0.369849,-2.832738 -0.553772,-3.205774c0,-0.570536 -0.89974,-1.317798 -1.985408,-1.888333c-2.191319,-0.944405 -2.743142,-3.205774 -0.73775,-3.205774c0.553828,0 1.085611,-0.373214 1.085611,-1.120595c0,-0.570536 1.105707,-0.943571 2.55922,-0.768869c2.007396,0.198333 3.091059,-0.54875 5.834201,-4.500893c2.007396,-2.832917 3.460908,-4.347917 3.644887,-3.579167c0.183923,0.943571 1.105651,1.492441 2.00734,1.492441c1.453568,0 1.637546,-0.548869 1.105707,-3.00756c-0.185927,-1.690952 -1.105707,-3.754822 -1.659479,-4.699584c-1.637546,-2.086369 -1.637546,-4.523572 0,-3.7775c1.289574,0.747441 5.302306,-1.316607 5.302306,-2.634345c0,-0.571429 0.533843,-0.944583 1.26959,-0.944583c0.737806,0 1.085667,1.141905 1.085667,2.635536c0,1.888155 0.367901,2.634524 1.28963,2.085476c0.715762,-0.394643 1.269645,-1.515119 1.269645,-2.26131c0,-2.2625 5.834146,-6.214703 7.287658,-5.094286c0.553883,0.373333 1.105651,0 1.291689,-1.317619c0.531784,-2.635536 3.82675,-4.699584 5.280262,-3.381786c0.737806,0.548869 1.453624,0.373214 1.63955,-0.197202c0.367845,-0.747381 1.821414,-1.317798 3.458904,-1.49375c1.637491,-0.197202 3.828809,-0.944583 4.750538,-1.713333c3.458904,-2.437202 6.919868,-2.261369 8.373381,0.374345c0.921729,1.888036 1.289574,1.888036 1.289574,0.570238c0,-1.690952 0.717822,-1.888155 5.098455,-1.317619c6.939853,0.747381 8.02552,0.747381 10.584739,-0.197381c1.637491,-0.548988 2.191263,-0.373155 2.191263,1.141786c0,0.944762 0.531895,1.691012 1.269645,1.691012c0.551824,0 1.083663,-0.549048 1.083663,-1.120476c0,-1.514941 2.929125,-2.26131 5.488289,-1.514941c1.985408,0.747381 2.16933,0.944405 1.637491,6.017143c-0.183923,3.030119 0,5.094167 0.347917,5.094167c0.367845,0 0.73775,-1.317798 0.73775,-3.205953c0,-3.184464 2.005392,-4.501191 2.743142,-1.888214c0.183978,0.943631 0.715762,0.570417 1.083663,-0.922024c0.921784,-3.953334 2.929125,-1.889345 2.375241,2.437202c-0.551768,3.578988 -0.551768,3.578988 1.085723,2.261191c0.921673,-0.570417 1.637435,-2.063869 1.637435,-3.00756c0,-0.944643 0.553883,-2.06506 1.289685,-2.459762c1.453457,-0.746071 3.093007,2.085655 2.559164,4.150536c-0.183923,0.94375 -0.183923,1.690952 0.347861,1.690952c0.369905,0 0.737806,-0.548869 0.737806,-0.944583c0,-0.548988 0.901689,-0.746369 2.00734,-0.373036c2.373293,0.570417 2.721154,2.085357 0.715818,3.007441c-0.531839,0.395714 -1.085667,1.317798 -1.085667,2.086667c0,1.317798 0.369849,1.317798 2.375241,0c3.274982,-2.26131 4.728494,-2.086667 5.282377,0.373036c0.367845,1.317798 1.085611,1.889226 1.821414,1.317798c0.73775,-0.197321 2.375241,0.571429 3.644887,1.888155c1.105651,1.120417 2.743142,2.064048 3.480893,2.064048c1.085667,0 1.085667,0.944702 0.715762,3.580119c-0.367845,2.832917 -0.367845,3.205953 0.737806,2.064167c1.453512,-1.866845 2.005392,-1.691131 2.539235,0.943393c0.183923,1.317798 1.473497,2.262381 2.927065,2.832798c1.637491,0.374345 2.539235,1.317738 2.539235,2.438214c0,1.141905 0.551768,2.458691 1.105651,3.206072c1.453568,1.317619 1.083663,5.269822 -0.553883,6.58756c-0.551768,0.394702 -1.269534,0.197381 -1.453512,-0.373036c-0.367845,-0.571548 -1.637491,-0.571548 -4.012788,0c-3.828809,1.316607 -4.544571,1.690833 -3.644831,3.403155c0.553828,1.119405 6.921817,0.746369 10.400761,-0.571429c1.085667,-0.570476 1.453568,0 1.453568,2.635595c0,1.888036 -0.367901,3.381786 -0.919725,3.381786c-0.369905,0 -0.717766,0.570357 -0.717766,1.514941c0,2.262262 0.901744,2.063869 3.276986,-0.570536c1.267586,-1.514941 2.005336,-1.889167 2.907081,-0.944405c0.919725,0.944405 1.105651,0.944405 1.105651,-0.570536c0,-0.923214 -0.369905,-1.690833 -0.921673,-1.690833c-0.347917,0 -0.717822,-0.747381 -0.717822,-1.49375c0,-0.944464 0.533843,-1.690833 1.26959,-1.690833c0.553828,0 1.28963,0.373036 1.28963,0.922083c0,0.571667 0.717766,1.317738 1.639495,1.515119c1.267641,0.571548 1.637491,1.317798 1.453512,3.579107c-0.369849,4.32625 0.367957,5.644167 3.091059,4.897917c1.28963,-0.374345 2.005336,0 1.453568,0.74625c-0.163938,0.373036 0,1.317798 0.367901,1.712202c1.475501,1.120536 0.921673,3.755119 -0.715818,3.755119c-2.00734,0 -2.55922,0.944405 -1.473497,2.635417c0.735746,0.944583 1.289574,1.119405 2.005336,0.373155c1.659479,-1.888155 2.007396,-0.373155 2.191319,7.159286c0,3.776191 0.367901,6.784941 0.735802,6.784941c0.901689,0 0.553828,4.150536 -0.735802,5.841369c-0.717766,0.943571 -0.717766,1.865595 -0.183923,2.634345c1.289574,1.691012 0,6.587917 -1.63955,6.587917c-1.453457,0 -4.196655,3.578988 -4.196655,5.269941c0,2.065179 -2.353253,0 -2.907081,-2.261369c-0.551824,-2.063988 -0.551824,-2.063988 -0.921729,-0.571429c-0.347861,1.713393 1.639495,6.983334 3.297026,8.476786c1.085611,1.142083 -0.921729,3.030119 -2.375297,2.261369c-0.737806,-0.373036 -1.085667,-1.492441 -1.085667,-2.634405c0,-3.205774 -4.564611,-11.287262 -8.02552,-14.317263c-1.841398,-1.49375 -3.478944,-3.184583 -3.478944,-3.754941c0,-1.141964 -5.83615,-4.699584 -9.111131,-5.841488c-1.823473,-0.571429 -2.375297,-0.373095 -2.375297,1.141905c0,1.119405 -0.347861,1.492441 -1.085667,1.119405c-1.637491,-0.746369 -2.375241,0.944762 -0.921673,2.635595c2.00734,2.063988 1.659479,4.523572 -0.531839,3.578988c-1.473552,-0.570417 -1.657531,-0.373214 -1.105651,2.832857c0.183923,1.866667 0.553828,4.32625 0.553828,5.445655c0,1.141964 0.367845,1.888333 0.735746,1.888333c0.533899,0 0.717766,-0.373214 0.347917,-0.943571c-0.183923,-0.571548 0.185982,-1.120476 0.921673,-1.120476c0.553883,0 1.085667,0.747262 1.085667,1.493512c0,0.768869 -0.71771,1.514941 -2.00734,1.317917c-1.083663,0 -2.005392,-0.549048 -2.005392,-0.922202c0,-1.713512 -4.914476,-13.37381 -6.367989,-15.086132c-1.637546,-1.866845 -0.551879,-2.437202 -13.491876,6.411846c-2.005336,1.317798 -4.196655,4.150536 -5.302306,6.214703c-0.901744,2.063869 -2.355257,4.150536 -3.091059,4.523572c-0.73775,0.373214 -3.460908,3.381786 -5.836205,6.587738c-10.216838,14.11887 -8.557359,15.809822 -7.841541,44.642978c3.093007,21.848572 3.093007,21.848572 3.093007,21.848572c-7.289718,0 -7.289718,0 -7.289718,0c-6.018124,0 -6.018124,0 -6.018124,0c0.551824,-20.15887 0.551824,-20.15887 0.551824,-20.15887c0.367845,-1.689702 0.553828,-5.093988 0.737806,-6.982322c0.183923,-1.120417 -5.118439,-6.017322 -4.934461,-7.136607c0,-0.944583 5.486285,1.691012 5.486285,0.74625c0.901689,-13.745834 0,-24.681489 -2.375297,-30.50143c-0.551824,-3.579167 -5.118383,-15.085001 -5.834146,-15.085001c-0.183978,0 -1.473552,-1.120417 -2.743142,-2.438214c-2.191374,-2.458572 -3.091059,-2.634524 -15.315293,-3.381786c-13.123919,-0.767738 -13.123919,-0.767738 -13.123919,-0.767738c-3.111043,2.634524 -3.111043,2.634524 -3.111043,2.634524c-1.821414,1.713333 -3.644831,2.832798 -4.176726,2.832798c-1.105651,0 -5.672211,3.953155 -7.657619,6.214346c-0.183923,0 -0.367845,-0.197024 -0.367845,-0.373036c-0.183978,0 -0.183978,0 -0.183978,-0.197321c-0.183923,-0.548869 -0.369849,-1.120417 -0.73775,-1.690833c1.105651,-0.944583 2.00734,-1.516012 2.375241,-1.317619c0.551824,0.373036 1.085667,0 1.085667,-0.944762c0,-0.943571 -1.085667,-1.317738 -3.992748,-0.943571c-3.480948,0.570536 -4.382637,0.767738 -4.934461,3.007619c-0.901744,1.141905 -1.085667,2.832857 -0.551824,4.150655c-0.185982,1.690833 -0.185982,2.832738 0,2.832738c0.183923,0 0.367845,-0.373036 0.919725,-0.76875c0,0.197381 0.183923,0.395714 0.369849,0.571429c-1.823418,0.570417 -2.745146,2.261369 -2.55922,3.952203c-0.921673,0.76875 -1.823418,1.141905 -2.929013,1.712322c0,0 0,-0.197202 -0.163994,-0.197202c0.717766,-1.690833 1.085667,-3.579167 1.26959,-6.411905c0.369905,-3.184583 0.183923,-5.269941 -0.367845,-5.269941c-0.367901,0 -0.73775,0.76875 -0.73775,1.887976c0.183867,0.944762 -0.163994,1.888333 -0.899796,2.064167c-0.553828,0.197202 -0.921673,-0.175833 -0.921673,-1.119405c0,-2.262381 -0.715818,-2.262381 -2.355313,-0.198333c-0.735746,0.76875 -2.189315,1.690952 -3.458904,2.086667c-1.659479,0.548869 -2.191319,0.175655 -2.929069,-1.888333c-0.551824,-1.690833 -0.919725,-3.580119 -0.551824,-4.326369c0.183923,-0.944583 0.183923,-1.712322 -0.531839,-1.712322c-2.007396,0 -0.553828,-3.00875 1.821414,-3.580179zm15.683138,-43.30268c-1.105651,-0.197202 -2.007396,-0.74625 -2.375241,-1.515c-0.183978,-1.120417 -0.367901,-1.120417 -0.367901,0c0,0.76875 -0.73775,1.317798 -1.453568,1.515c-1.289574,0 -1.289574,0.197321 0.183978,0.944762c0.899685,0.373036 1.821414,0.943393 2.005336,0.943393c0.163938,0 1.085667,-0.570357 2.007396,-0.943393c1.637491,-0.944762 1.637491,-0.944762 0,-0.944762zm144.585106,30.325597c0.347917,0.373214 0.715818,-0.198333 0.715818,-1.141905c0,-0.747262 -0.367901,-1.493631 -0.715818,-1.493631c-0.553772,0 -0.921673,0.373155 -0.921673,0.922083c0,0.571548 0.367901,1.340298 0.921673,1.713452zm-1.289574,1.690952c-0.183923,-0.571548 -1.085667,-1.317738 -1.823418,-1.317738c-0.531839,0 -0.89974,0.746191 -0.531839,1.317738c0.163938,0.570417 0.901689,0.943631 1.637491,0.943631c0.717766,0 0.901689,-0.373214 0.717766,-0.943631zm-1.637491,8.475774c0.551824,0 1.289574,-0.197202 1.289574,-0.373036c0,-0.395714 -0.73775,-0.76875 -1.289574,-1.141964c-0.717766,-0.373155 -1.269645,-0.175833 -1.269645,0.373214c0,0.571429 0.551879,1.141786 1.269645,1.141786zm1.453568,-17.896251c0.735746,-0.373333 1.105596,-0.944702 0.919725,-1.49375c-0.551879,-1.339107 -3.642938,-1.339107 -3.642938,0c0,1.49375 1.083719,2.064167 2.723214,1.49375zm-10.012876,-14.120179c-0.921729,0.571548 -1.473552,1.690952 -1.289685,2.262381c0.921729,1.492619 2.007452,1.119405 2.927121,-1.317798c0.901744,-2.262381 0.533843,-2.635417 -1.637435,-0.944583zm-3.480948,29.007858c4.750482,5.07256 4.934461,5.269941 4.934461,3.579107c0,-0.943571 -0.367901,-1.712322 -0.921729,-1.712322c-0.531784,0 -1.453512,-0.944762 -2.005336,-2.063988c-0.531895,-1.120595 -1.637491,-2.26256 -2.539235,-2.26256c-1.657475,0 -1.657475,0.198393 0.531839,2.459762zm-3.826861,-8.871608c1.103703,0 1.637546,-0.373036 0.91978,-0.548929c-0.551824,-0.373155 -1.453568,-0.373155 -2.005392,0c-0.553883,0.175893 0,0.548929 1.085611,0.548929zm-5.282322,-25.603573c0.551824,0.570536 2.189315,1.316786 3.642827,1.691012c2.559275,0.570357 2.743198,0.570357 1.28963,-0.944583c-1.657475,-1.866845 -6.202047,-2.437202 -4.932457,-0.746429zm-11.118583,-31.247501c-0.551824,0.548869 -0.735746,1.690833 -0.551824,2.437024c0.367901,1.515119 1.453568,0.197381 1.453568,-2.063988c0,-1.141964 -0.183978,-1.317798 -0.901744,-0.373036zm5.4663,40.668157c1.453568,0.943452 2.007396,0.943452 2.745202,-0.374226c1.453512,-2.064107 0.531784,-3.00756 -2.191374,-1.690774c-2.191319,0.923095 -2.191319,0.923095 -0.553828,2.065zm-3.642827,-9.420655c2.743142,-2.06381 2.743142,-2.06381 0.551824,-2.06381c-1.473552,0 -2.55922,0.746071 -3.111043,2.06381c-0.347917,1.316786 -0.717766,2.064167 -0.533843,2.064167c0,0 1.453568,-1.120536 3.093063,-2.064167zm-4.012788,30.522978c1.267586,2.064167 3.45896,2.064167 2.743142,-0.197321c-0.183923,-0.747262 -0.369849,-1.690833 -0.369849,-1.889226c0,-0.175833 -0.735802,-0.175833 -1.637491,0.198393c-1.473552,0.373155 -1.473552,0.943571 -0.735802,1.888155zm-5.652227,-7.729643c1.453512,2.064107 2.191319,2.26131 3.828809,0.746369c1.085667,-0.943571 1.085667,-0.943571 0,-1.119405c-0.551824,0 -2.005392,-0.198393 -3.274982,-0.571548c-1.823418,-0.74625 -1.823418,-0.74625 -0.553828,0.944583zm-0.183923,-20.531965c0.921673,0 2.00734,-3.008572 1.453568,-3.952143c-0.715818,-0.944583 -2.18937,0.570357 -2.18937,2.26131c0,0.944643 0.367901,1.690833 0.735802,1.690833zm-8.92526,12.802262c-1.105651,0.76875 -0.921673,0.944762 0.531895,0.944762c0.921673,0 2.005336,-0.374345 2.375241,-0.944762c0.551768,-1.493452 -1.269645,-1.493452 -2.907136,0zm0.183978,16.578751c0.163938,0.198393 0.715762,-0.197321 1.26959,-1.119405c0.551768,-0.76875 2.18937,-1.713333 3.458904,-2.086548c1.637491,-0.570536 2.375297,-1.49256 2.375297,-2.832857c0,-3.183274 -2.55922,-2.239881 -5.282433,1.889286c-1.105596,2.085536 -2.005336,3.776488 -1.821358,4.149524zm-2.00734,-8.673215c1.637435,-2.063869 1.637435,-2.438214 0.347805,-3.008631c-1.453512,-0.746369 -2.537176,0.944762 -2.537176,3.952203c-0.185927,2.262381 -0.185927,2.262381 2.18937,-0.943571zm-2.927121,-22.222739c0.183923,1.514941 0.551824,1.317738 1.637435,-1.493631c1.289685,-3.007619 1.289685,-3.403333 0.183978,-3.403333c-0.715762,0 -1.453568,0.570536 -1.637491,1.515179c-0.367901,0.746191 -0.367901,2.459702 -0.183923,3.381786zm-0.901744,-15.436846c0,0.767738 0.347861,2.634524 0.717766,3.952203c0.551824,2.635536 0.551824,2.635536 1.105651,0.373155c0.715762,-2.261191 0,-5.642976 -1.105651,-5.642976c-0.533843,0 -0.717766,0.570238 -0.717766,1.317619zm-12.774054,6.213512c-0.901689,1.317798 -0.901689,2.635595 -0.185927,6.587738c0.369905,2.832798 1.291634,5.665655 1.823418,6.214703c0.921729,0.944583 1.105651,0 1.289574,-5.840476c0,-7.136786 -0.921673,-9.398989 -2.927065,-6.961965zm1.637491,19.961549c0.183978,0.373214 0.551824,-0.373155 0.367901,-1.493571c0,-1.141964 -0.183923,-1.317798 -0.551824,-0.570417c-0.163994,0.74625 -0.163994,1.690833 0.183923,2.063988zm6.571952,-17.699167c-0.183923,0.373214 -0.183923,3.00875 0.367901,5.840476c0.553828,4.897917 0.717766,5.095119 0.901744,1.516012c0.183923,-5.841488 -0.183978,-8.674227 -1.269645,-7.356488zm-6.204051,53.118931c1.105651,-2.262381 2.927121,-6.038869 4.19671,-8.301072c1.453512,-2.437381 2.375241,-5.643155 2.743142,-8.849108c0.533843,-5.072738 0.533843,-5.072738 0.533843,-5.072738c-2.191319,2.811369 -2.191319,2.811369 -2.191319,2.811369c-1.085667,1.515119 -1.821469,3.205953 -1.821469,3.776488c0,1.493512 -3.460908,10.913989 -4.546575,12.604941c-0.551824,0.943393 -1.473552,3.030119 -1.637491,4.523572c-0.921729,4.325476 0.717766,3.579107 2.723158,-1.493452zm-12.939996,19.390001c0.553828,3.754822 0.553828,3.754822 2.375297,-4.326429c1.085667,-4.347976 2.723158,-11.308631 3.828809,-15.63512c1.453512,-5.467322 2.00734,-9.990893 2.00734,-16.381251c0,-8.300238 -0.185927,-8.476072 -1.639439,-7.53131c-3.295022,2.437143 -5.118439,9.222084 -5.854241,22.397382c-0.347861,6.78625 -0.717766,13.571191 -1.085611,15.064822c-0.183978,1.515 0,4.347857 0.367845,6.411905zm0.369905,-48.200657c0.715762,1.866786 1.453568,3.381786 1.453568,3.381786c0.183923,0 1.083607,-1.141964 1.821414,-2.635417c0.921673,-1.316726 2.375241,-2.831726 2.927121,-3.380774c2.171279,-1.713333 2.723102,-6.983274 0.901689,-10.562381c-1.453568,-3.205953 -5.4663,-6.786131 -6.204106,-5.644167c-0.367845,0.373155 -0.899685,3.953334 -1.26959,8.102858c-0.735746,6.214524 -0.735746,8.103691 0.369905,10.738096zm-1.105651,-43.12774c0.367901,0.374226 0.735746,0.175833 0.735746,-0.394524c0,-0.747381 -0.367845,-1.49375 -0.735746,-1.866845c-0.553828,-0.395655 -0.901744,-0.197321 -0.901744,0.549048c0,0.570417 0.347917,1.317798 0.901744,1.712322zm-59.067683,50.637562c2.53918,0.198333 2.53918,0.198333 2.53918,0.198333c2.55922,0 5.118439,-2.438214 5.118439,-4.523572c0,-1.317798 -0.183923,-1.317798 -7.657619,4.325238zm1.085667,-5.27c0,0.571726 0.367901,1.141964 0.921729,1.141964c0.89974,0 3.458904,-3.381786 2.907081,-3.952143c-0.553828,-0.76875 -3.828809,1.690774 -3.828809,2.810179zm2.00734,-12.977917c2.743198,3.755833 4.012788,4.128988 5.4663,1.690774c1.473552,-2.261191 0.183978,-3.77631 -4.198659,-4.325357c-3.642883,-0.571548 -3.642883,-0.571548 -1.267641,2.634583zm-2.00734,-10.561429c0,0.394524 1.289574,1.316607 2.743142,2.085357c6.735946,3.579167 8.02552,3.579167 7.841541,0.176012c0,-2.064167 -2.743142,-6.587857 -3.828809,-6.587857c-1.289574,0 -6.755874,3.579107 -6.755874,4.326488zm9.848937,26.745477c2.005392,0 2.189315,-0.570536 0.551824,-1.492619c-0.73775,-0.198333 -1.453568,0 -1.637491,0.549048c-0.369905,0.570238 0.183923,0.943571 1.085667,0.943571zm1.453568,-44.247323c-1.269645,-0.944702 -2.90914,-1.317738 -3.644887,-0.944702c-1.26959,0.747381 -1.085667,0.944702 0.735746,1.514941c0.901744,0.374345 2.745202,0.747441 3.644887,0.923274c1.085667,0 1.085667,-0.374226 -0.735746,-1.493512zm-0.163938,6.784941c1.083607,0 1.26959,-0.197321 0.531839,-0.767738c-0.531839,-0.175714 -1.269645,-0.175714 -1.637546,0.197381c-0.183923,0.373036 0.367901,0.746369 1.105707,0.570357zm1.083607,4.326548c-2.559164,0 -2.559164,0.175655 -1.083607,1.690774c1.821414,1.690833 2.353253,1.888036 3.091059,0.74625c1.269534,-1.492619 0.367845,-2.437024 -2.007452,-2.437024zm3.644942,-21.278334c-0.737806,-0.944583 -0.921729,0.746369 -0.551879,2.810357c0.183923,1.317798 0.919725,2.459583 1.28963,2.459583c0.715762,0 0.183923,-4.150536 -0.73775,-5.269941zm5.834146,24.857144c-0.367845,0.176012 0.553828,1.317798 1.639495,2.2625c1.105651,0.943571 2.005336,1.316667 2.005336,0.74625c0,-1.317619 -3.091003,-3.777322 -3.644831,-3.00875zm-4.564611,1.317798c-1.637491,1.317917 -0.715762,4.699524 1.657531,5.27006c1.26959,0.373095 3.276986,1.888214 4.546575,3.381667c1.105651,1.515119 2.005336,2.086667 2.005336,1.515119c0,-1.888155 -7.287714,-10.935596 -8.209442,-10.166846zm7.473696,15.635298c-1.085611,-3.03125 -2.355257,-4.523869 -4.730554,-5.468453c-1.821414,-0.74625 -3.644831,-1.141786 -4.196655,-0.943452c-0.553828,0.197202 1.637491,2.634405 4.750538,5.467203c5.834146,4.896905 5.834146,4.896905 4.17667,0.944702zm9.682995,-29.007977c-0.367901,0 -0.737806,0.746369 -0.737806,1.492619c0,0.944583 0.369905,1.515119 0.737806,1.515119c0.531839,0 0.901744,-0.570536 0.901744,-1.515119c0,-0.74625 -0.369905,-1.492619 -0.901744,-1.492619zm-1.657475,15.436846c0,1.317619 3.111043,0.373155 4.380633,-1.317798c1.821469,-2.832738 1.637491,-3.579107 -0.73775,-3.579107c-1.637491,0 -3.642883,2.635655 -3.642883,4.896905zm5.302362,-40.668335c-0.553828,2.437202 -0.921729,4.501191 -0.73775,4.699584c0.553772,0.746369 2.007396,-4.896786 2.007396,-7.159167c0,-0.943571 -0.553883,0.198393 -1.269645,2.459583zm9.479088,38.03274c-0.921729,0 -1.637546,0.374345 -1.637546,1.120417c0,0.570536 0.531839,0.944762 1.083663,0.944762c0.73775,0 1.453568,-0.374226 1.639495,-0.944762c0.367901,-0.746071 -0.185927,-1.120417 -1.085611,-1.120417zm-2.191374,35.398216c1.085667,3.404345 2.723158,6.587738 3.644887,7.356488c0.921729,0.570536 2.743142,3.206072 3.828809,5.841488c1.085667,2.634524 2.191319,4.698572 2.375297,4.698572c0.899685,0 -0.921729,-17.325001 -2.191319,-22.595953c-1.105707,-4.52256 -1.453624,-8.673215 -1.269645,-15.260953c0.163938,-4.896786 0,-9.223274 -0.367845,-9.596369c-0.183978,-0.373155 -1.453568,-0.373155 -2.55922,0c-2.007396,0.74625 -2.191319,1.317798 -2.191319,5.468334c0,3.183453 -0.367957,4.896905 -1.269645,5.642976c-2.559164,1.691012 -2.375241,11.287322 0,18.445417zm-5.282322,-25.230299c-0.367901,-2.832798 -0.735746,-3.205953 -2.743142,-3.205953c-2.375297,0 -2.375297,0.197321 -2.191319,4.149524c0,2.438214 0.369849,5.270953 0.553772,6.587679c0.183978,1.317798 0.901744,2.635417 1.637546,2.832798c1.453512,0.944702 3.091003,-5.642976 2.743142,-10.364048zm-2.743142,19.015775c-1.637546,-2.261369 -2.743142,-4.698572 -2.907136,-5.269941c0,-0.74625 -0.921673,-2.634405 -2.005392,-4.325357c-1.105651,-1.690833 -2.375241,-3.777381 -2.929069,-4.52375c-1.821414,-2.635417 -1.453568,-0.373036 0.553828,5.467322c1.26959,3.953155 3.45896,7.532322 6.018124,10.540893c4.730498,5.094107 5.282377,4.149703 1.269645,-1.889167zm-2.907136,9.244643c1.985408,0 1.821469,-0.197202 -0.921673,-3.205774c-1.821469,-1.888333 -3.091059,-3.952322 -3.091059,-4.896965c0,-0.746191 -2.375297,-3.403274 -5.118383,-5.840476c-2.723214,-2.459524 -5.282433,-4.896726 -5.650279,-5.643988c-0.369905,-0.943571 -0.553828,-0.943571 -0.553828,0.175833c0,1.141964 -0.89974,1.317619 -3.828809,0.74625c-2.005392,-0.373214 -3.642883,-0.373214 -3.642883,-0.174821c0,0.373155 0.735746,2.634524 1.473552,4.896726c1.269645,3.755 1.821414,4.523869 5.834201,6.016369c2.539235,0.944583 6.551912,3.205893 9.111131,4.896726c2.375297,1.713512 5.282377,3.030119 6.388029,3.030119zm-28.459141,6.390357c0.73775,0 1.823418,-0.373036 2.559164,-0.944405c1.269645,-1.316786 0.185982,-1.316786 -2.189315,0c-1.085667,0.571369 -1.26959,0.747202 -0.369849,0.944405zm-2.005392,-4.699524c1.821469,-0.767619 7.657619,-1.515 12.959981,-1.515c10.010927,-0.175833 12.018267,-0.746071 8.00548,-1.888155c-1.269534,-0.373036 -4.17667,-1.317798 -6.551912,-2.261369c-4.19671,-1.690833 -12.776058,-1.120417 -13.675798,0.767917c-0.185927,0.374048 -1.105651,0.571369 -2.00734,0.374048c-1.821469,-0.571429 -3.644887,0.943691 -4.19671,3.952322c-0.73775,2.437024 0.551824,2.635417 5.4663,0.570238zm-14.577487,4.326488c0.367901,1.515119 2.191319,1.690833 3.644887,0.373036c0.899685,-0.746191 0.899685,-1.119226 0,-2.261191c-0.73775,-1.120595 -1.26959,-1.120595 -2.375241,-0.175833c-0.73775,0.549048 -1.269645,1.492619 -1.269645,2.063988zm-5.834201,13.175477c0.715818,0 1.083719,0.570536 0.715818,1.690952c-0.163994,0.76875 -0.715818,1.515 -1.085667,1.515c-0.551824,0 -0.89974,-0.74625 -0.89974,-1.515c0,-0.922083 0.531839,-1.690952 1.26959,-1.690952z" stroke-opacity="null" stroke-width="null" stroke="null" fill="#070707"/>
 </g>
</svg>